%TF.GenerationSoftware,KiCad,Pcbnew,8.0.6*%
%TF.CreationDate,2024-11-22T18:40:36+01:00*%
%TF.ProjectId,+-10v dac,2b2d3130-7620-4646-9163-2e6b69636164,rev?*%
%TF.SameCoordinates,Original*%
%TF.FileFunction,Soldermask,Top*%
%TF.FilePolarity,Negative*%
%FSLAX46Y46*%
G04 Gerber Fmt 4.6, Leading zero omitted, Abs format (unit mm)*
G04 Created by KiCad (PCBNEW 8.0.6) date 2024-11-22 18:40:36*
%MOMM*%
%LPD*%
G01*
G04 APERTURE LIST*
G04 Aperture macros list*
%AMRoundRect*
0 Rectangle with rounded corners*
0 $1 Rounding radius*
0 $2 $3 $4 $5 $6 $7 $8 $9 X,Y pos of 4 corners*
0 Add a 4 corners polygon primitive as box body*
4,1,4,$2,$3,$4,$5,$6,$7,$8,$9,$2,$3,0*
0 Add four circle primitives for the rounded corners*
1,1,$1+$1,$2,$3*
1,1,$1+$1,$4,$5*
1,1,$1+$1,$6,$7*
1,1,$1+$1,$8,$9*
0 Add four rect primitives between the rounded corners*
20,1,$1+$1,$2,$3,$4,$5,0*
20,1,$1+$1,$4,$5,$6,$7,0*
20,1,$1+$1,$6,$7,$8,$9,0*
20,1,$1+$1,$8,$9,$2,$3,0*%
G04 Aperture macros list end*
%ADD10R,1.600000X1.600000*%
%ADD11O,1.600000X1.600000*%
%ADD12RoundRect,0.250000X-0.400000X-0.625000X0.400000X-0.625000X0.400000X0.625000X-0.400000X0.625000X0*%
%ADD13R,1.700000X1.700000*%
%ADD14O,1.700000X1.700000*%
G04 APERTURE END LIST*
D10*
%TO.C,U4*%
X136700000Y-94200000D03*
D11*
X136700000Y-96740000D03*
X136700000Y-99280000D03*
X136700000Y-101820000D03*
X144320000Y-101820000D03*
X144320000Y-99280000D03*
X144320000Y-96740000D03*
X144320000Y-94200000D03*
%TD*%
D10*
%TO.C,U3*%
X131200000Y-77700000D03*
D11*
X131200000Y-80240000D03*
X131200000Y-82780000D03*
X131200000Y-85320000D03*
X138820000Y-85320000D03*
X138820000Y-82780000D03*
X138820000Y-80240000D03*
X138820000Y-77700000D03*
%TD*%
D10*
%TO.C,U2*%
X111200000Y-94960000D03*
D11*
X111200000Y-97500000D03*
X111200000Y-100040000D03*
X111200000Y-102580000D03*
X118820000Y-102580000D03*
X118820000Y-100040000D03*
X118820000Y-97500000D03*
X118820000Y-94960000D03*
%TD*%
D10*
%TO.C,U1*%
X106700000Y-77700000D03*
D11*
X106700000Y-80240000D03*
X106700000Y-82780000D03*
X106700000Y-85320000D03*
X114320000Y-85320000D03*
X114320000Y-82780000D03*
X114320000Y-80240000D03*
X114320000Y-77700000D03*
%TD*%
D12*
%TO.C,R18*%
X129900000Y-100500000D03*
X133000000Y-100500000D03*
%TD*%
%TO.C,R17*%
X129900000Y-97500000D03*
X133000000Y-97500000D03*
%TD*%
%TO.C,R16*%
X129950000Y-94500000D03*
X133050000Y-94500000D03*
%TD*%
%TO.C,R15*%
X129900000Y-91500000D03*
X133000000Y-91500000D03*
%TD*%
%TO.C,R14*%
X148450000Y-102500000D03*
X151550000Y-102500000D03*
%TD*%
%TO.C,R13*%
X148450000Y-99500000D03*
X151550000Y-99500000D03*
%TD*%
%TO.C,R12*%
X129950000Y-103500000D03*
X133050000Y-103500000D03*
%TD*%
%TO.C,R11*%
X148450000Y-95500000D03*
X151550000Y-95500000D03*
%TD*%
%TO.C,R10*%
X148450000Y-92500000D03*
X151550000Y-92500000D03*
%TD*%
%TO.C,R9*%
X121450000Y-91500000D03*
X124550000Y-91500000D03*
%TD*%
%TO.C,R8*%
X121500000Y-94500000D03*
X124600000Y-94500000D03*
%TD*%
%TO.C,R7*%
X121450000Y-100500000D03*
X124550000Y-100500000D03*
%TD*%
%TO.C,R6*%
X121450000Y-97210000D03*
X124550000Y-97210000D03*
%TD*%
%TO.C,R5*%
X121450000Y-103710000D03*
X124550000Y-103710000D03*
%TD*%
%TO.C,R4*%
X105000000Y-93000000D03*
X108100000Y-93000000D03*
%TD*%
%TO.C,R3*%
X104900000Y-103000000D03*
X108000000Y-103000000D03*
%TD*%
%TO.C,R2*%
X104900000Y-96000000D03*
X108000000Y-96000000D03*
%TD*%
%TO.C,R1*%
X105000000Y-100000000D03*
X108100000Y-100000000D03*
%TD*%
D13*
%TO.C,J3*%
X140500000Y-72000000D03*
D14*
X137960000Y-72000000D03*
X135420000Y-72000000D03*
%TD*%
D13*
%TO.C,J2*%
X105840000Y-72000000D03*
D14*
X108380000Y-72000000D03*
X110920000Y-72000000D03*
X113460000Y-72000000D03*
X116000000Y-72000000D03*
X118540000Y-72000000D03*
%TD*%
D13*
%TO.C,J1*%
X124460000Y-72000000D03*
D14*
X127000000Y-72000000D03*
X129540000Y-72000000D03*
%TD*%
M02*
