%TF.GenerationSoftware,KiCad,Pcbnew,8.0.6*%
%TF.CreationDate,2024-11-22T18:40:36+01:00*%
%TF.ProjectId,+-10v dac,2b2d3130-7620-4646-9163-2e6b69636164,rev?*%
%TF.SameCoordinates,Original*%
%TF.FileFunction,Copper,L2,Bot*%
%TF.FilePolarity,Positive*%
%FSLAX46Y46*%
G04 Gerber Fmt 4.6, Leading zero omitted, Abs format (unit mm)*
G04 Created by KiCad (PCBNEW 8.0.6) date 2024-11-22 18:40:36*
%MOMM*%
%LPD*%
G01*
G04 APERTURE LIST*
%TA.AperFunction,ComponentPad*%
%ADD10R,1.600000X1.600000*%
%TD*%
%TA.AperFunction,ComponentPad*%
%ADD11O,1.600000X1.600000*%
%TD*%
%TA.AperFunction,ComponentPad*%
%ADD12R,1.700000X1.700000*%
%TD*%
%TA.AperFunction,ComponentPad*%
%ADD13O,1.700000X1.700000*%
%TD*%
%TA.AperFunction,ViaPad*%
%ADD14C,0.600000*%
%TD*%
%TA.AperFunction,Conductor*%
%ADD15C,0.200000*%
%TD*%
G04 APERTURE END LIST*
D10*
%TO.P,U4,1*%
%TO.N,Net-(U4B-+)*%
X136700000Y-94200000D03*
D11*
%TO.P,U4,2,-*%
%TO.N,Net-(U4A--)*%
X136700000Y-96740000D03*
%TO.P,U4,3,+*%
%TO.N,Net-(U4A-+)*%
X136700000Y-99280000D03*
%TO.P,U4,4,V-*%
%TO.N,-15v*%
X136700000Y-101820000D03*
%TO.P,U4,5,+*%
%TO.N,Net-(U4B-+)*%
X144320000Y-101820000D03*
%TO.P,U4,6,-*%
%TO.N,Net-(U4B--)*%
X144320000Y-99280000D03*
%TO.P,U4,7*%
%TO.N,output2*%
X144320000Y-96740000D03*
%TO.P,U4,8,V+*%
%TO.N,+15v*%
X144320000Y-94200000D03*
%TD*%
D10*
%TO.P,U3,1,Vdd*%
%TO.N,5v*%
X131200000Y-77700000D03*
D11*
%TO.P,U3,2,~{CS}*%
%TO.N,CS2*%
X131200000Y-80240000D03*
%TO.P,U3,3,SCK*%
%TO.N,SCK*%
X131200000Y-82780000D03*
%TO.P,U3,4,SDI*%
%TO.N,SDI*%
X131200000Y-85320000D03*
%TO.P,U3,5,~{LDAC}*%
%TO.N,unconnected-(U3-~{LDAC}-Pad5)*%
X138820000Y-85320000D03*
%TO.P,U3,6,VB*%
%TO.N,DACOUT2*%
X138820000Y-82780000D03*
%TO.P,U3,7,Vss*%
%TO.N,GND*%
X138820000Y-80240000D03*
%TO.P,U3,8,VA*%
%TO.N,DACOUT1*%
X138820000Y-77700000D03*
%TD*%
D10*
%TO.P,U2,1*%
%TO.N,Net-(U2B-+)*%
X111200000Y-94960000D03*
D11*
%TO.P,U2,2,-*%
%TO.N,Net-(U2A--)*%
X111200000Y-97500000D03*
%TO.P,U2,3,+*%
%TO.N,Net-(U2A-+)*%
X111200000Y-100040000D03*
%TO.P,U2,4,V-*%
%TO.N,-15v*%
X111200000Y-102580000D03*
%TO.P,U2,5,+*%
%TO.N,Net-(U2B-+)*%
X118820000Y-102580000D03*
%TO.P,U2,6,-*%
%TO.N,Net-(U2B--)*%
X118820000Y-100040000D03*
%TO.P,U2,7*%
%TO.N,output1*%
X118820000Y-97500000D03*
%TO.P,U2,8,V+*%
%TO.N,+15v*%
X118820000Y-94960000D03*
%TD*%
D10*
%TO.P,U1,1,Vdd*%
%TO.N,5v*%
X106700000Y-77700000D03*
D11*
%TO.P,U1,2,~{CS}*%
%TO.N,CS1*%
X106700000Y-80240000D03*
%TO.P,U1,3,SCK*%
%TO.N,SCK*%
X106700000Y-82780000D03*
%TO.P,U1,4,SDI*%
%TO.N,SDI*%
X106700000Y-85320000D03*
%TO.P,U1,5,~{LDAC}*%
%TO.N,unconnected-(U1-~{LDAC}-Pad5)*%
X114320000Y-85320000D03*
%TO.P,U1,6,VB*%
%TO.N,unconnected-(U1-VB-Pad6)*%
X114320000Y-82780000D03*
%TO.P,U1,7,Vss*%
%TO.N,GND*%
X114320000Y-80240000D03*
%TO.P,U1,8,VA*%
%TO.N,Vref1*%
X114320000Y-77700000D03*
%TD*%
D12*
%TO.P,J3,1,Pin_1*%
%TO.N,output1*%
X140500000Y-72000000D03*
D13*
%TO.P,J3,2,Pin_2*%
%TO.N,GND*%
X137960000Y-72000000D03*
%TO.P,J3,3,Pin_3*%
%TO.N,output2*%
X135420000Y-72000000D03*
%TD*%
D12*
%TO.P,J2,1,Pin_1*%
%TO.N,SCK*%
X105840000Y-72000000D03*
D13*
%TO.P,J2,2,Pin_2*%
%TO.N,SDI*%
X108380000Y-72000000D03*
%TO.P,J2,3,Pin_3*%
%TO.N,5v*%
X110920000Y-72000000D03*
%TO.P,J2,4,Pin_4*%
%TO.N,GND*%
X113460000Y-72000000D03*
%TO.P,J2,5,Pin_5*%
%TO.N,CS1*%
X116000000Y-72000000D03*
%TO.P,J2,6,Pin_6*%
%TO.N,CS2*%
X118540000Y-72000000D03*
%TD*%
D12*
%TO.P,J1,1,Pin_1*%
%TO.N,+15v*%
X124460000Y-72000000D03*
D13*
%TO.P,J1,2,Pin_2*%
%TO.N,GND*%
X127000000Y-72000000D03*
%TO.P,J1,3,Pin_3*%
%TO.N,-15v*%
X129540000Y-72000000D03*
%TD*%
D14*
%TO.N,DACOUT2*%
X132329800Y-96090800D03*
%TO.N,GND*%
X105896800Y-101754900D03*
%TD*%
D15*
%TO.N,Net-(U4B-+)*%
X136837700Y-95301700D02*
X136700000Y-95301700D01*
X143218300Y-101682300D02*
X136837700Y-95301700D01*
X143218300Y-101820000D02*
X143218300Y-101682300D01*
X144320000Y-101820000D02*
X143218300Y-101820000D01*
X136700000Y-94200000D02*
X136700000Y-95301700D01*
%TO.N,DACOUT2*%
X138820000Y-82780000D02*
X138820000Y-83881700D01*
X132329800Y-90143600D02*
X132329800Y-96090800D01*
X138591700Y-83881700D02*
X132329800Y-90143600D01*
X138820000Y-83881700D02*
X138591700Y-83881700D01*
%TO.N,output2*%
X144320000Y-96740000D02*
X144320000Y-95638300D01*
X144091700Y-95638300D02*
X144320000Y-95638300D01*
X140070600Y-91617200D02*
X144091700Y-95638300D01*
X140070600Y-82445300D02*
X140070600Y-91617200D01*
X139135300Y-81510000D02*
X140070600Y-82445300D01*
X138524800Y-81510000D02*
X139135300Y-81510000D01*
X135420000Y-78405200D02*
X138524800Y-81510000D01*
X135420000Y-72000000D02*
X135420000Y-78405200D01*
%TO.N,output1*%
X119048300Y-96398300D02*
X118820000Y-96398300D01*
X128270000Y-87176600D02*
X119048300Y-96398300D01*
X128270000Y-71615800D02*
X128270000Y-87176600D01*
X129069300Y-70816500D02*
X128270000Y-71615800D01*
X138452700Y-70816500D02*
X129069300Y-70816500D01*
X139348300Y-71712100D02*
X138452700Y-70816500D01*
X139348300Y-72000000D02*
X139348300Y-71712100D01*
X140500000Y-72000000D02*
X139348300Y-72000000D01*
X118820000Y-97500000D02*
X118820000Y-96398300D01*
%TO.N,SCK*%
X105840000Y-72000000D02*
X105840000Y-73151700D01*
X106700000Y-82780000D02*
X106700000Y-81678300D01*
X106471700Y-81678300D02*
X106700000Y-81678300D01*
X105193500Y-80400100D02*
X106471700Y-81678300D01*
X105193500Y-73798200D02*
X105193500Y-80400100D01*
X105840000Y-73151700D02*
X105193500Y-73798200D01*
%TO.N,5v*%
X107473400Y-76598300D02*
X106700000Y-76598300D01*
X110920000Y-73151700D02*
X107473400Y-76598300D01*
X110920000Y-72000000D02*
X110920000Y-73151700D01*
X106700000Y-77700000D02*
X106700000Y-76598300D01*
%TO.N,SDI*%
X106928300Y-84218300D02*
X106700000Y-84218300D01*
X107821500Y-83325100D02*
X106928300Y-84218300D01*
X107821500Y-79756400D02*
X107821500Y-83325100D01*
X106866800Y-78801700D02*
X107821500Y-79756400D01*
X105775000Y-78801700D02*
X106866800Y-78801700D01*
X105598300Y-78625000D02*
X105775000Y-78801700D01*
X105598300Y-75933400D02*
X105598300Y-78625000D01*
X108380000Y-73151700D02*
X105598300Y-75933400D01*
X108380000Y-72000000D02*
X108380000Y-73151700D01*
X106700000Y-85320000D02*
X106700000Y-84218300D01*
%TO.N,+15v*%
X118820000Y-78791700D02*
X118820000Y-94960000D01*
X124460000Y-73151700D02*
X118820000Y-78791700D01*
X124460000Y-72000000D02*
X124460000Y-73151700D01*
%TO.N,-15v*%
X136700000Y-101820000D02*
X136700000Y-100718300D01*
X111200000Y-102580000D02*
X112301700Y-102580000D01*
X119991500Y-103724700D02*
X129540000Y-94176200D01*
X113446400Y-103724700D02*
X119991500Y-103724700D01*
X112301700Y-102580000D02*
X113446400Y-103724700D01*
X129540000Y-72000000D02*
X129540000Y-94176200D01*
X136082100Y-100718300D02*
X136700000Y-100718300D01*
X129540000Y-94176200D02*
X136082100Y-100718300D01*
%TO.N,Net-(U2B-+)*%
X111337700Y-96061700D02*
X111200000Y-96061700D01*
X117718300Y-102442300D02*
X111337700Y-96061700D01*
X117718300Y-102580000D02*
X117718300Y-102442300D01*
X118820000Y-102580000D02*
X117718300Y-102580000D01*
X111200000Y-94960000D02*
X111200000Y-96061700D01*
%TO.N,GND*%
X138591700Y-79138300D02*
X138820000Y-79138300D01*
X137690600Y-78237200D02*
X138591700Y-79138300D01*
X137690600Y-73421100D02*
X137690600Y-78237200D01*
X137960000Y-73151700D02*
X137690600Y-73421100D01*
X137960000Y-72000000D02*
X137960000Y-73151700D01*
X138820000Y-80240000D02*
X138820000Y-79138300D01*
X113186100Y-78983900D02*
X114320000Y-80117800D01*
X113186100Y-73425600D02*
X113186100Y-78983900D01*
X113460000Y-73151700D02*
X113186100Y-73425600D01*
X113460000Y-72000000D02*
X113460000Y-73151700D01*
X114611700Y-71731500D02*
X114611700Y-72000000D01*
X115515800Y-70827400D02*
X114611700Y-71731500D01*
X125467500Y-70827400D02*
X115515800Y-70827400D01*
X125848300Y-71208200D02*
X125467500Y-70827400D01*
X125848300Y-72000000D02*
X125848300Y-71208200D01*
X127000000Y-72000000D02*
X125848300Y-72000000D01*
X113460000Y-72000000D02*
X114611700Y-72000000D01*
X114320000Y-80240000D02*
X114320000Y-80178900D01*
X114320000Y-80178900D02*
X114320000Y-80117800D01*
X105896800Y-88602100D02*
X105896800Y-101754900D01*
X114320000Y-80178900D02*
X105896800Y-88602100D01*
%TD*%
M02*
