%TF.GenerationSoftware,KiCad,Pcbnew,8.0.6*%
%TF.CreationDate,2024-11-22T18:40:11+01:00*%
%TF.ProjectId,+-10v dac,2b2d3130-7620-4646-9163-2e6b69636164,rev?*%
%TF.SameCoordinates,Original*%
%TF.FileFunction,Drillmap*%
%TF.FilePolarity,Positive*%
%FSLAX45Y45*%
G04 Gerber Fmt 4.5, Leading zero omitted, Abs format (unit mm)*
G04 Created by KiCad (PCBNEW 8.0.6) date 2024-11-22 18:40:11*
%MOMM*%
%LPD*%
G01*
G04 APERTURE LIST*
%ADD10C,0.050000*%
%ADD11C,0.200000*%
G04 APERTURE END LIST*
D10*
X10350000Y-6979000D02*
X15350000Y-6979000D01*
X15350000Y-10979000D01*
X10350000Y-10979000D01*
X10350000Y-6979000D01*
D11*
X10608277Y-11292984D02*
X10608277Y-11092984D01*
X10608277Y-11092984D02*
X10655896Y-11092984D01*
X10655896Y-11092984D02*
X10684467Y-11102508D01*
X10684467Y-11102508D02*
X10703515Y-11121555D01*
X10703515Y-11121555D02*
X10713039Y-11140603D01*
X10713039Y-11140603D02*
X10722563Y-11178698D01*
X10722563Y-11178698D02*
X10722563Y-11207269D01*
X10722563Y-11207269D02*
X10713039Y-11245365D01*
X10713039Y-11245365D02*
X10703515Y-11264412D01*
X10703515Y-11264412D02*
X10684467Y-11283460D01*
X10684467Y-11283460D02*
X10655896Y-11292984D01*
X10655896Y-11292984D02*
X10608277Y-11292984D01*
X10808277Y-11292984D02*
X10808277Y-11159650D01*
X10808277Y-11197746D02*
X10817801Y-11178698D01*
X10817801Y-11178698D02*
X10827324Y-11169174D01*
X10827324Y-11169174D02*
X10846372Y-11159650D01*
X10846372Y-11159650D02*
X10865420Y-11159650D01*
X10932086Y-11292984D02*
X10932086Y-11159650D01*
X10932086Y-11092984D02*
X10922563Y-11102508D01*
X10922563Y-11102508D02*
X10932086Y-11112031D01*
X10932086Y-11112031D02*
X10941610Y-11102508D01*
X10941610Y-11102508D02*
X10932086Y-11092984D01*
X10932086Y-11092984D02*
X10932086Y-11112031D01*
X11055896Y-11292984D02*
X11036848Y-11283460D01*
X11036848Y-11283460D02*
X11027324Y-11264412D01*
X11027324Y-11264412D02*
X11027324Y-11092984D01*
X11160658Y-11292984D02*
X11141610Y-11283460D01*
X11141610Y-11283460D02*
X11132086Y-11264412D01*
X11132086Y-11264412D02*
X11132086Y-11092984D01*
X11389229Y-11292984D02*
X11389229Y-11092984D01*
X11389229Y-11092984D02*
X11455896Y-11235841D01*
X11455896Y-11235841D02*
X11522562Y-11092984D01*
X11522562Y-11092984D02*
X11522562Y-11292984D01*
X11703515Y-11292984D02*
X11703515Y-11188222D01*
X11703515Y-11188222D02*
X11693991Y-11169174D01*
X11693991Y-11169174D02*
X11674943Y-11159650D01*
X11674943Y-11159650D02*
X11636848Y-11159650D01*
X11636848Y-11159650D02*
X11617801Y-11169174D01*
X11703515Y-11283460D02*
X11684467Y-11292984D01*
X11684467Y-11292984D02*
X11636848Y-11292984D01*
X11636848Y-11292984D02*
X11617801Y-11283460D01*
X11617801Y-11283460D02*
X11608277Y-11264412D01*
X11608277Y-11264412D02*
X11608277Y-11245365D01*
X11608277Y-11245365D02*
X11617801Y-11226317D01*
X11617801Y-11226317D02*
X11636848Y-11216793D01*
X11636848Y-11216793D02*
X11684467Y-11216793D01*
X11684467Y-11216793D02*
X11703515Y-11207269D01*
X11798753Y-11159650D02*
X11798753Y-11359650D01*
X11798753Y-11169174D02*
X11817801Y-11159650D01*
X11817801Y-11159650D02*
X11855896Y-11159650D01*
X11855896Y-11159650D02*
X11874943Y-11169174D01*
X11874943Y-11169174D02*
X11884467Y-11178698D01*
X11884467Y-11178698D02*
X11893991Y-11197746D01*
X11893991Y-11197746D02*
X11893991Y-11254888D01*
X11893991Y-11254888D02*
X11884467Y-11273936D01*
X11884467Y-11273936D02*
X11874943Y-11283460D01*
X11874943Y-11283460D02*
X11855896Y-11292984D01*
X11855896Y-11292984D02*
X11817801Y-11292984D01*
X11817801Y-11292984D02*
X11798753Y-11283460D01*
X11979705Y-11273936D02*
X11989229Y-11283460D01*
X11989229Y-11283460D02*
X11979705Y-11292984D01*
X11979705Y-11292984D02*
X11970182Y-11283460D01*
X11970182Y-11283460D02*
X11979705Y-11273936D01*
X11979705Y-11273936D02*
X11979705Y-11292984D01*
X11979705Y-11169174D02*
X11989229Y-11178698D01*
X11989229Y-11178698D02*
X11979705Y-11188222D01*
X11979705Y-11188222D02*
X11970182Y-11178698D01*
X11970182Y-11178698D02*
X11979705Y-11169174D01*
X11979705Y-11169174D02*
X11979705Y-11188222D01*
M02*
