%TF.GenerationSoftware,KiCad,Pcbnew,8.0.6*%
%TF.CreationDate,2024-11-22T18:40:36+01:00*%
%TF.ProjectId,+-10v dac,2b2d3130-7620-4646-9163-2e6b69636164,rev?*%
%TF.SameCoordinates,Original*%
%TF.FileFunction,Copper,L1,Top*%
%TF.FilePolarity,Positive*%
%FSLAX46Y46*%
G04 Gerber Fmt 4.6, Leading zero omitted, Abs format (unit mm)*
G04 Created by KiCad (PCBNEW 8.0.6) date 2024-11-22 18:40:36*
%MOMM*%
%LPD*%
G01*
G04 APERTURE LIST*
G04 Aperture macros list*
%AMRoundRect*
0 Rectangle with rounded corners*
0 $1 Rounding radius*
0 $2 $3 $4 $5 $6 $7 $8 $9 X,Y pos of 4 corners*
0 Add a 4 corners polygon primitive as box body*
4,1,4,$2,$3,$4,$5,$6,$7,$8,$9,$2,$3,0*
0 Add four circle primitives for the rounded corners*
1,1,$1+$1,$2,$3*
1,1,$1+$1,$4,$5*
1,1,$1+$1,$6,$7*
1,1,$1+$1,$8,$9*
0 Add four rect primitives between the rounded corners*
20,1,$1+$1,$2,$3,$4,$5,0*
20,1,$1+$1,$4,$5,$6,$7,0*
20,1,$1+$1,$6,$7,$8,$9,0*
20,1,$1+$1,$8,$9,$2,$3,0*%
G04 Aperture macros list end*
%TA.AperFunction,ComponentPad*%
%ADD10R,1.600000X1.600000*%
%TD*%
%TA.AperFunction,ComponentPad*%
%ADD11O,1.600000X1.600000*%
%TD*%
%TA.AperFunction,SMDPad,CuDef*%
%ADD12RoundRect,0.250000X-0.400000X-0.625000X0.400000X-0.625000X0.400000X0.625000X-0.400000X0.625000X0*%
%TD*%
%TA.AperFunction,ComponentPad*%
%ADD13R,1.700000X1.700000*%
%TD*%
%TA.AperFunction,ComponentPad*%
%ADD14O,1.700000X1.700000*%
%TD*%
%TA.AperFunction,ViaPad*%
%ADD15C,0.600000*%
%TD*%
%TA.AperFunction,Conductor*%
%ADD16C,0.200000*%
%TD*%
G04 APERTURE END LIST*
D10*
%TO.P,U4,1*%
%TO.N,Net-(U4B-+)*%
X136700000Y-94200000D03*
D11*
%TO.P,U4,2,-*%
%TO.N,Net-(U4A--)*%
X136700000Y-96740000D03*
%TO.P,U4,3,+*%
%TO.N,Net-(U4A-+)*%
X136700000Y-99280000D03*
%TO.P,U4,4,V-*%
%TO.N,-15v*%
X136700000Y-101820000D03*
%TO.P,U4,5,+*%
%TO.N,Net-(U4B-+)*%
X144320000Y-101820000D03*
%TO.P,U4,6,-*%
%TO.N,Net-(U4B--)*%
X144320000Y-99280000D03*
%TO.P,U4,7*%
%TO.N,output2*%
X144320000Y-96740000D03*
%TO.P,U4,8,V+*%
%TO.N,+15v*%
X144320000Y-94200000D03*
%TD*%
D10*
%TO.P,U3,1,Vdd*%
%TO.N,5v*%
X131200000Y-77700000D03*
D11*
%TO.P,U3,2,~{CS}*%
%TO.N,CS2*%
X131200000Y-80240000D03*
%TO.P,U3,3,SCK*%
%TO.N,SCK*%
X131200000Y-82780000D03*
%TO.P,U3,4,SDI*%
%TO.N,SDI*%
X131200000Y-85320000D03*
%TO.P,U3,5,~{LDAC}*%
%TO.N,unconnected-(U3-~{LDAC}-Pad5)*%
X138820000Y-85320000D03*
%TO.P,U3,6,VB*%
%TO.N,DACOUT2*%
X138820000Y-82780000D03*
%TO.P,U3,7,Vss*%
%TO.N,GND*%
X138820000Y-80240000D03*
%TO.P,U3,8,VA*%
%TO.N,DACOUT1*%
X138820000Y-77700000D03*
%TD*%
D10*
%TO.P,U2,1*%
%TO.N,Net-(U2B-+)*%
X111200000Y-94960000D03*
D11*
%TO.P,U2,2,-*%
%TO.N,Net-(U2A--)*%
X111200000Y-97500000D03*
%TO.P,U2,3,+*%
%TO.N,Net-(U2A-+)*%
X111200000Y-100040000D03*
%TO.P,U2,4,V-*%
%TO.N,-15v*%
X111200000Y-102580000D03*
%TO.P,U2,5,+*%
%TO.N,Net-(U2B-+)*%
X118820000Y-102580000D03*
%TO.P,U2,6,-*%
%TO.N,Net-(U2B--)*%
X118820000Y-100040000D03*
%TO.P,U2,7*%
%TO.N,output1*%
X118820000Y-97500000D03*
%TO.P,U2,8,V+*%
%TO.N,+15v*%
X118820000Y-94960000D03*
%TD*%
D10*
%TO.P,U1,1,Vdd*%
%TO.N,5v*%
X106700000Y-77700000D03*
D11*
%TO.P,U1,2,~{CS}*%
%TO.N,CS1*%
X106700000Y-80240000D03*
%TO.P,U1,3,SCK*%
%TO.N,SCK*%
X106700000Y-82780000D03*
%TO.P,U1,4,SDI*%
%TO.N,SDI*%
X106700000Y-85320000D03*
%TO.P,U1,5,~{LDAC}*%
%TO.N,unconnected-(U1-~{LDAC}-Pad5)*%
X114320000Y-85320000D03*
%TO.P,U1,6,VB*%
%TO.N,unconnected-(U1-VB-Pad6)*%
X114320000Y-82780000D03*
%TO.P,U1,7,Vss*%
%TO.N,GND*%
X114320000Y-80240000D03*
%TO.P,U1,8,VA*%
%TO.N,Vref1*%
X114320000Y-77700000D03*
%TD*%
D12*
%TO.P,R18,1*%
%TO.N,Net-(R17-Pad2)*%
X129900000Y-100500000D03*
%TO.P,R18,2*%
%TO.N,Net-(U4B--)*%
X133000000Y-100500000D03*
%TD*%
%TO.P,R17,1*%
%TO.N,Net-(R16-Pad2)*%
X129900000Y-97500000D03*
%TO.P,R17,2*%
%TO.N,Net-(R17-Pad2)*%
X133000000Y-97500000D03*
%TD*%
%TO.P,R16,1*%
%TO.N,Net-(R15-Pad2)*%
X129950000Y-94500000D03*
%TO.P,R16,2*%
%TO.N,Net-(R16-Pad2)*%
X133050000Y-94500000D03*
%TD*%
%TO.P,R15,1*%
%TO.N,output2*%
X129900000Y-91500000D03*
%TO.P,R15,2*%
%TO.N,Net-(R15-Pad2)*%
X133000000Y-91500000D03*
%TD*%
%TO.P,R14,1*%
%TO.N,unconnected-(R14-Pad1)*%
X148450000Y-102500000D03*
%TO.P,R14,2*%
%TO.N,Net-(U4B--)*%
X151550000Y-102500000D03*
%TD*%
%TO.P,R13,1*%
%TO.N,Net-(U4B-+)*%
X148450000Y-99500000D03*
%TO.P,R13,2*%
%TO.N,Net-(U4A--)*%
X151550000Y-99500000D03*
%TD*%
%TO.P,R12,1*%
%TO.N,DACOUT2*%
X129950000Y-103500000D03*
%TO.P,R12,2*%
%TO.N,Net-(U4A--)*%
X133050000Y-103500000D03*
%TD*%
%TO.P,R11,1*%
%TO.N,Vref1*%
X148450000Y-95500000D03*
%TO.P,R11,2*%
%TO.N,Net-(U4A-+)*%
X151550000Y-95500000D03*
%TD*%
%TO.P,R10,1*%
%TO.N,GND*%
X148450000Y-92500000D03*
%TO.P,R10,2*%
%TO.N,Net-(U4A-+)*%
X151550000Y-92500000D03*
%TD*%
%TO.P,R9,1*%
%TO.N,Net-(R8-Pad2)*%
X121450000Y-91500000D03*
%TO.P,R9,2*%
%TO.N,output1*%
X124550000Y-91500000D03*
%TD*%
%TO.P,R8,1*%
%TO.N,Net-(R7-Pad2)*%
X121500000Y-94500000D03*
%TO.P,R8,2*%
%TO.N,Net-(R8-Pad2)*%
X124600000Y-94500000D03*
%TD*%
%TO.P,R7,1*%
%TO.N,Net-(R6-Pad2)*%
X121450000Y-100500000D03*
%TO.P,R7,2*%
%TO.N,Net-(R7-Pad2)*%
X124550000Y-100500000D03*
%TD*%
%TO.P,R6,1*%
%TO.N,Net-(U2B--)*%
X121450000Y-97210000D03*
%TO.P,R6,2*%
%TO.N,Net-(R6-Pad2)*%
X124550000Y-97210000D03*
%TD*%
%TO.P,R5,1*%
%TO.N,GND*%
X121450000Y-103710000D03*
%TO.P,R5,2*%
%TO.N,Net-(U2B--)*%
X124550000Y-103710000D03*
%TD*%
%TO.P,R4,1*%
%TO.N,Net-(U2A--)*%
X105000000Y-93000000D03*
%TO.P,R4,2*%
%TO.N,Net-(U2B-+)*%
X108100000Y-93000000D03*
%TD*%
%TO.P,R3,1*%
%TO.N,GND*%
X104900000Y-103000000D03*
%TO.P,R3,2*%
%TO.N,Net-(U2A-+)*%
X108000000Y-103000000D03*
%TD*%
%TO.P,R2,1*%
%TO.N,DACOUT1*%
X104900000Y-96000000D03*
%TO.P,R2,2*%
%TO.N,Net-(U2A--)*%
X108000000Y-96000000D03*
%TD*%
%TO.P,R1,1*%
%TO.N,Vref1*%
X105000000Y-100000000D03*
%TO.P,R1,2*%
%TO.N,Net-(U2A-+)*%
X108100000Y-100000000D03*
%TD*%
D13*
%TO.P,J3,1,Pin_1*%
%TO.N,output1*%
X140500000Y-72000000D03*
D14*
%TO.P,J3,2,Pin_2*%
%TO.N,GND*%
X137960000Y-72000000D03*
%TO.P,J3,3,Pin_3*%
%TO.N,output2*%
X135420000Y-72000000D03*
%TD*%
D13*
%TO.P,J2,1,Pin_1*%
%TO.N,SCK*%
X105840000Y-72000000D03*
D14*
%TO.P,J2,2,Pin_2*%
%TO.N,SDI*%
X108380000Y-72000000D03*
%TO.P,J2,3,Pin_3*%
%TO.N,5v*%
X110920000Y-72000000D03*
%TO.P,J2,4,Pin_4*%
%TO.N,GND*%
X113460000Y-72000000D03*
%TO.P,J2,5,Pin_5*%
%TO.N,CS1*%
X116000000Y-72000000D03*
%TO.P,J2,6,Pin_6*%
%TO.N,CS2*%
X118540000Y-72000000D03*
%TD*%
D13*
%TO.P,J1,1,Pin_1*%
%TO.N,+15v*%
X124460000Y-72000000D03*
D14*
%TO.P,J1,2,Pin_2*%
%TO.N,GND*%
X127000000Y-72000000D03*
%TO.P,J1,3,Pin_3*%
%TO.N,-15v*%
X129540000Y-72000000D03*
%TD*%
D15*
%TO.N,DACOUT2*%
X132329800Y-96090800D03*
%TO.N,GND*%
X105896800Y-101754900D03*
%TD*%
D16*
%TO.N,Net-(R17-Pad2)*%
X130000000Y-100500000D02*
X129900000Y-100500000D01*
X133000000Y-97500000D02*
X130000000Y-100500000D01*
%TO.N,Net-(R16-Pad2)*%
X132900000Y-94500000D02*
X133050000Y-94500000D01*
X129900000Y-97500000D02*
X132900000Y-94500000D01*
%TO.N,Net-(R15-Pad2)*%
X130000000Y-94500000D02*
X129950000Y-94500000D01*
X133000000Y-91500000D02*
X130000000Y-94500000D01*
%TO.N,Net-(U4B--)*%
X146405400Y-98296300D02*
X145421700Y-99280000D01*
X149075800Y-98296300D02*
X146405400Y-98296300D01*
X150000000Y-99220500D02*
X149075800Y-98296300D01*
X150000000Y-100950000D02*
X150000000Y-99220500D01*
X151550000Y-102500000D02*
X150000000Y-100950000D01*
X144320000Y-99280000D02*
X145421700Y-99280000D01*
X141998300Y-100500000D02*
X143218300Y-99280000D01*
X133000000Y-100500000D02*
X141998300Y-100500000D01*
X144320000Y-99280000D02*
X143218300Y-99280000D01*
%TO.N,Net-(U4B-+)*%
X146130000Y-101820000D02*
X144320000Y-101820000D01*
X148450000Y-99500000D02*
X146130000Y-101820000D01*
%TO.N,Net-(U4A--)*%
X132003900Y-102453900D02*
X133050000Y-103500000D01*
X132003900Y-99689600D02*
X132003900Y-102453900D01*
X132693500Y-99000000D02*
X132003900Y-99689600D01*
X133338300Y-99000000D02*
X132693500Y-99000000D01*
X135598300Y-96740000D02*
X133338300Y-99000000D01*
X136700000Y-96740000D02*
X135598300Y-96740000D01*
X133231500Y-103681500D02*
X133050000Y-103500000D01*
X152177500Y-103681500D02*
X133231500Y-103681500D01*
X152530700Y-103328300D02*
X152177500Y-103681500D01*
X152530700Y-100480700D02*
X152530700Y-103328300D01*
X151550000Y-99500000D02*
X152530700Y-100480700D01*
%TO.N,DACOUT2*%
X131703900Y-96716700D02*
X132329800Y-96090800D01*
X131703900Y-97577300D02*
X131703900Y-96716700D01*
X130281200Y-99000000D02*
X131703900Y-97577300D01*
X129548400Y-99000000D02*
X130281200Y-99000000D01*
X128920000Y-99628400D02*
X129548400Y-99000000D01*
X128920000Y-102470000D02*
X128920000Y-99628400D01*
X129950000Y-103500000D02*
X128920000Y-102470000D01*
%TO.N,output2*%
X131085700Y-90314300D02*
X129900000Y-91500000D01*
X136792600Y-90314300D02*
X131085700Y-90314300D01*
X143218300Y-96740000D02*
X136792600Y-90314300D01*
X144320000Y-96740000D02*
X143218300Y-96740000D01*
%TO.N,output1*%
X118820000Y-97500000D02*
X118820000Y-96398300D01*
X123359100Y-90309100D02*
X124550000Y-91500000D01*
X120822900Y-90309100D02*
X123359100Y-90309100D01*
X120404700Y-90727300D02*
X120822900Y-90309100D01*
X120404700Y-95041900D02*
X120404700Y-90727300D01*
X119048300Y-96398300D02*
X120404700Y-95041900D01*
X118820000Y-96398300D02*
X119048300Y-96398300D01*
%TO.N,SCK*%
X106700000Y-82780000D02*
X107801700Y-82780000D01*
X131200000Y-82780000D02*
X130098300Y-82780000D01*
X108912900Y-83891200D02*
X107801700Y-82780000D01*
X128987100Y-83891200D02*
X108912900Y-83891200D01*
X130098300Y-82780000D02*
X128987100Y-83891200D01*
%TO.N,CS1*%
X106700000Y-80240000D02*
X107801700Y-80240000D01*
X116000000Y-72000000D02*
X116000000Y-73151700D01*
X114890000Y-73151700D02*
X116000000Y-73151700D01*
X107801700Y-80240000D02*
X114890000Y-73151700D01*
%TO.N,5v*%
X110920000Y-72000000D02*
X112071700Y-72000000D01*
X112071700Y-71712100D02*
X112071700Y-72000000D01*
X113342400Y-70441400D02*
X112071700Y-71712100D01*
X119690100Y-70441400D02*
X113342400Y-70441400D01*
X126948700Y-77700000D02*
X119690100Y-70441400D01*
X131200000Y-77700000D02*
X126948700Y-77700000D01*
%TO.N,SDI*%
X106700000Y-85320000D02*
X107801700Y-85320000D01*
X131200000Y-85320000D02*
X130098300Y-85320000D01*
X108916900Y-86435200D02*
X107801700Y-85320000D01*
X128983100Y-86435200D02*
X108916900Y-86435200D01*
X130098300Y-85320000D02*
X128983100Y-86435200D01*
%TO.N,CS2*%
X127931700Y-80240000D02*
X131200000Y-80240000D01*
X119691700Y-72000000D02*
X127931700Y-80240000D01*
X118540000Y-72000000D02*
X119691700Y-72000000D01*
%TO.N,Net-(U4A-+)*%
X139213300Y-97868400D02*
X137801700Y-99280000D01*
X149181600Y-97868400D02*
X139213300Y-97868400D01*
X151550000Y-95500000D02*
X149181600Y-97868400D01*
X136700000Y-99280000D02*
X137801700Y-99280000D01*
X151550000Y-92500000D02*
X151550000Y-95500000D01*
%TO.N,+15v*%
X138922900Y-89904600D02*
X143218300Y-94200000D01*
X120646800Y-89904600D02*
X138922900Y-89904600D01*
X118820000Y-91731400D02*
X120646800Y-89904600D01*
X118820000Y-94960000D02*
X118820000Y-91731400D01*
X144320000Y-94200000D02*
X143218300Y-94200000D01*
%TO.N,Net-(R8-Pad2)*%
X121600000Y-91500000D02*
X121450000Y-91500000D01*
X124600000Y-94500000D02*
X121600000Y-91500000D01*
%TO.N,Net-(R7-Pad2)*%
X122846200Y-95846200D02*
X121500000Y-94500000D01*
X125049300Y-95846200D02*
X122846200Y-95846200D01*
X125521700Y-96318600D02*
X125049300Y-95846200D01*
X125521700Y-99528300D02*
X125521700Y-96318600D01*
X124550000Y-100500000D02*
X125521700Y-99528300D01*
%TO.N,Net-(R6-Pad2)*%
X121450000Y-100310000D02*
X121450000Y-100500000D01*
X124550000Y-97210000D02*
X121450000Y-100310000D01*
%TO.N,Net-(U2B--)*%
X119921700Y-100819200D02*
X119921700Y-100040000D01*
X121207500Y-102105000D02*
X119921700Y-100819200D01*
X122945000Y-102105000D02*
X121207500Y-102105000D01*
X124550000Y-103710000D02*
X122945000Y-102105000D01*
X118820000Y-100040000D02*
X119921700Y-100040000D01*
X119921700Y-98738300D02*
X119921700Y-100040000D01*
X121450000Y-97210000D02*
X119921700Y-98738300D01*
%TO.N,Net-(U2B-+)*%
X108138300Y-93000000D02*
X110098300Y-94960000D01*
X108100000Y-93000000D02*
X108138300Y-93000000D01*
X111200000Y-94960000D02*
X110098300Y-94960000D01*
%TO.N,Net-(U2A--)*%
X108000000Y-96000000D02*
X105000000Y-93000000D01*
X109500000Y-97500000D02*
X108000000Y-96000000D01*
X111200000Y-97500000D02*
X109500000Y-97500000D01*
%TO.N,DACOUT1*%
X136589900Y-78828400D02*
X137718300Y-77700000D01*
X127273600Y-78828400D02*
X136589900Y-78828400D01*
X119288300Y-70843100D02*
X127273600Y-78828400D01*
X115513600Y-70843100D02*
X119288300Y-70843100D01*
X114730000Y-71626700D02*
X115513600Y-70843100D01*
X114730000Y-72394100D02*
X114730000Y-71626700D01*
X108295700Y-78828400D02*
X114730000Y-72394100D01*
X106518700Y-78828400D02*
X108295700Y-78828400D01*
X104027600Y-81319500D02*
X106518700Y-78828400D01*
X104027600Y-95127600D02*
X104027600Y-81319500D01*
X104900000Y-96000000D02*
X104027600Y-95127600D01*
X138820000Y-77700000D02*
X137718300Y-77700000D01*
%TO.N,Vref1*%
X114320000Y-77700000D02*
X113218300Y-77700000D01*
X105564900Y-85774300D02*
X112301700Y-92511100D01*
X105564900Y-82333900D02*
X105564900Y-85774300D01*
X106333000Y-81565800D02*
X105564900Y-82333900D01*
X109352500Y-81565800D02*
X106333000Y-81565800D01*
X113218300Y-77700000D02*
X109352500Y-81565800D01*
X106230000Y-98770000D02*
X105000000Y-100000000D01*
X111490100Y-98770000D02*
X106230000Y-98770000D01*
X112301700Y-97958400D02*
X111490100Y-98770000D01*
X112301700Y-92511100D02*
X112301700Y-97958400D01*
X115322700Y-89490100D02*
X112301700Y-92511100D01*
X142440100Y-89490100D02*
X115322700Y-89490100D01*
X148450000Y-95500000D02*
X142440100Y-89490100D01*
%TO.N,Net-(U2A-+)*%
X111200000Y-100040000D02*
X110098300Y-100040000D01*
X108100000Y-100040000D02*
X110098300Y-100040000D01*
X108100000Y-100000000D02*
X108100000Y-100040000D01*
X108000000Y-100140000D02*
X108000000Y-103000000D01*
X108100000Y-100040000D02*
X108000000Y-100140000D01*
%TO.N,GND*%
X128151700Y-71731500D02*
X128151700Y-72000000D01*
X129055800Y-70827400D02*
X128151700Y-71731500D01*
X135923600Y-70827400D02*
X129055800Y-70827400D01*
X136808300Y-71712100D02*
X135923600Y-70827400D01*
X136808300Y-72000000D02*
X136808300Y-71712100D01*
X137960000Y-72000000D02*
X136808300Y-72000000D01*
X127000000Y-72000000D02*
X128151700Y-72000000D01*
X148450000Y-90834000D02*
X148450000Y-92500000D01*
X138957700Y-81341700D02*
X148450000Y-90834000D01*
X138820000Y-81341700D02*
X138957700Y-81341700D01*
X138820000Y-80240000D02*
X138820000Y-81341700D01*
X120937700Y-104222300D02*
X121450000Y-103710000D01*
X106122300Y-104222300D02*
X120937700Y-104222300D01*
X104900000Y-103000000D02*
X106122300Y-104222300D01*
X104900000Y-102751700D02*
X104900000Y-103000000D01*
X105896800Y-101754900D02*
X104900000Y-102751700D01*
%TD*%
M02*
