%TF.GenerationSoftware,KiCad,Pcbnew,8.0.6*%
%TF.CreationDate,2024-11-22T18:40:11+01:00*%
%TF.ProjectId,+-10v dac,2b2d3130-7620-4646-9163-2e6b69636164,rev?*%
%TF.SameCoordinates,Original*%
%TF.FileFunction,Drillmap*%
%TF.FilePolarity,Positive*%
%FSLAX45Y45*%
G04 Gerber Fmt 4.5, Leading zero omitted, Abs format (unit mm)*
G04 Created by KiCad (PCBNEW 8.0.6) date 2024-11-22 18:40:11*
%MOMM*%
%LPD*%
G01*
G04 APERTURE LIST*
%ADD10C,0.050000*%
%ADD11C,0.200000*%
%ADD12C,0.100000*%
G04 APERTURE END LIST*
D10*
X10350000Y-6979000D02*
X15350000Y-6979000D01*
X15350000Y-10979000D01*
X10350000Y-10979000D01*
X10350000Y-6979000D01*
D11*
D12*
X10574680Y-10160490D02*
X10604680Y-10190490D01*
X10604680Y-10160490D02*
X10574680Y-10190490D01*
X13217980Y-9594080D02*
X13247980Y-9624080D01*
X13247980Y-9594080D02*
X13217980Y-9624080D01*
X10710000Y-7770000D02*
G75*
G02*
X10630000Y-7770000I-40000J0D01*
G01*
X10630000Y-7770000D02*
G75*
G02*
X10710000Y-7770000I40000J0D01*
G01*
X10710000Y-8024000D02*
G75*
G02*
X10630000Y-8024000I-40000J0D01*
G01*
X10630000Y-8024000D02*
G75*
G02*
X10710000Y-8024000I40000J0D01*
G01*
X10710000Y-8278000D02*
G75*
G02*
X10630000Y-8278000I-40000J0D01*
G01*
X10630000Y-8278000D02*
G75*
G02*
X10710000Y-8278000I40000J0D01*
G01*
X10710000Y-8532000D02*
G75*
G02*
X10630000Y-8532000I-40000J0D01*
G01*
X10630000Y-8532000D02*
G75*
G02*
X10710000Y-8532000I40000J0D01*
G01*
X11160000Y-9496000D02*
G75*
G02*
X11080000Y-9496000I-40000J0D01*
G01*
X11080000Y-9496000D02*
G75*
G02*
X11160000Y-9496000I40000J0D01*
G01*
X11160000Y-9750000D02*
G75*
G02*
X11080000Y-9750000I-40000J0D01*
G01*
X11080000Y-9750000D02*
G75*
G02*
X11160000Y-9750000I40000J0D01*
G01*
X11160000Y-10004000D02*
G75*
G02*
X11080000Y-10004000I-40000J0D01*
G01*
X11080000Y-10004000D02*
G75*
G02*
X11160000Y-10004000I40000J0D01*
G01*
X11160000Y-10258000D02*
G75*
G02*
X11080000Y-10258000I-40000J0D01*
G01*
X11080000Y-10258000D02*
G75*
G02*
X11160000Y-10258000I40000J0D01*
G01*
X11472000Y-7770000D02*
G75*
G02*
X11392000Y-7770000I-40000J0D01*
G01*
X11392000Y-7770000D02*
G75*
G02*
X11472000Y-7770000I40000J0D01*
G01*
X11472000Y-8024000D02*
G75*
G02*
X11392000Y-8024000I-40000J0D01*
G01*
X11392000Y-8024000D02*
G75*
G02*
X11472000Y-8024000I40000J0D01*
G01*
X11472000Y-8278000D02*
G75*
G02*
X11392000Y-8278000I-40000J0D01*
G01*
X11392000Y-8278000D02*
G75*
G02*
X11472000Y-8278000I40000J0D01*
G01*
X11472000Y-8532000D02*
G75*
G02*
X11392000Y-8532000I-40000J0D01*
G01*
X11392000Y-8532000D02*
G75*
G02*
X11472000Y-8532000I40000J0D01*
G01*
X11922000Y-9496000D02*
G75*
G02*
X11842000Y-9496000I-40000J0D01*
G01*
X11842000Y-9496000D02*
G75*
G02*
X11922000Y-9496000I40000J0D01*
G01*
X11922000Y-9750000D02*
G75*
G02*
X11842000Y-9750000I-40000J0D01*
G01*
X11842000Y-9750000D02*
G75*
G02*
X11922000Y-9750000I40000J0D01*
G01*
X11922000Y-10004000D02*
G75*
G02*
X11842000Y-10004000I-40000J0D01*
G01*
X11842000Y-10004000D02*
G75*
G02*
X11922000Y-10004000I40000J0D01*
G01*
X11922000Y-10258000D02*
G75*
G02*
X11842000Y-10258000I-40000J0D01*
G01*
X11842000Y-10258000D02*
G75*
G02*
X11922000Y-10258000I40000J0D01*
G01*
X13160000Y-7770000D02*
G75*
G02*
X13080000Y-7770000I-40000J0D01*
G01*
X13080000Y-7770000D02*
G75*
G02*
X13160000Y-7770000I40000J0D01*
G01*
X13160000Y-8024000D02*
G75*
G02*
X13080000Y-8024000I-40000J0D01*
G01*
X13080000Y-8024000D02*
G75*
G02*
X13160000Y-8024000I40000J0D01*
G01*
X13160000Y-8278000D02*
G75*
G02*
X13080000Y-8278000I-40000J0D01*
G01*
X13080000Y-8278000D02*
G75*
G02*
X13160000Y-8278000I40000J0D01*
G01*
X13160000Y-8532000D02*
G75*
G02*
X13080000Y-8532000I-40000J0D01*
G01*
X13080000Y-8532000D02*
G75*
G02*
X13160000Y-8532000I40000J0D01*
G01*
X13710000Y-9420000D02*
G75*
G02*
X13630000Y-9420000I-40000J0D01*
G01*
X13630000Y-9420000D02*
G75*
G02*
X13710000Y-9420000I40000J0D01*
G01*
X13710000Y-9674000D02*
G75*
G02*
X13630000Y-9674000I-40000J0D01*
G01*
X13630000Y-9674000D02*
G75*
G02*
X13710000Y-9674000I40000J0D01*
G01*
X13710000Y-9928000D02*
G75*
G02*
X13630000Y-9928000I-40000J0D01*
G01*
X13630000Y-9928000D02*
G75*
G02*
X13710000Y-9928000I40000J0D01*
G01*
X13710000Y-10182000D02*
G75*
G02*
X13630000Y-10182000I-40000J0D01*
G01*
X13630000Y-10182000D02*
G75*
G02*
X13710000Y-10182000I40000J0D01*
G01*
X13922000Y-7770000D02*
G75*
G02*
X13842000Y-7770000I-40000J0D01*
G01*
X13842000Y-7770000D02*
G75*
G02*
X13922000Y-7770000I40000J0D01*
G01*
X13922000Y-8024000D02*
G75*
G02*
X13842000Y-8024000I-40000J0D01*
G01*
X13842000Y-8024000D02*
G75*
G02*
X13922000Y-8024000I40000J0D01*
G01*
X13922000Y-8278000D02*
G75*
G02*
X13842000Y-8278000I-40000J0D01*
G01*
X13842000Y-8278000D02*
G75*
G02*
X13922000Y-8278000I40000J0D01*
G01*
X13922000Y-8532000D02*
G75*
G02*
X13842000Y-8532000I-40000J0D01*
G01*
X13842000Y-8532000D02*
G75*
G02*
X13922000Y-8532000I40000J0D01*
G01*
X14472000Y-9420000D02*
G75*
G02*
X14392000Y-9420000I-40000J0D01*
G01*
X14392000Y-9420000D02*
G75*
G02*
X14472000Y-9420000I40000J0D01*
G01*
X14472000Y-9674000D02*
G75*
G02*
X14392000Y-9674000I-40000J0D01*
G01*
X14392000Y-9674000D02*
G75*
G02*
X14472000Y-9674000I40000J0D01*
G01*
X14472000Y-9928000D02*
G75*
G02*
X14392000Y-9928000I-40000J0D01*
G01*
X14392000Y-9928000D02*
G75*
G02*
X14472000Y-9928000I40000J0D01*
G01*
X14472000Y-10182000D02*
G75*
G02*
X14392000Y-10182000I-40000J0D01*
G01*
X14392000Y-10182000D02*
G75*
G02*
X14472000Y-10182000I40000J0D01*
G01*
X10584000Y-7150000D02*
X10584000Y-7250000D01*
X10534000Y-7200000D02*
X10634000Y-7200000D01*
X10838000Y-7150000D02*
X10838000Y-7250000D01*
X10788000Y-7200000D02*
X10888000Y-7200000D01*
X11092000Y-7150000D02*
X11092000Y-7250000D01*
X11042000Y-7200000D02*
X11142000Y-7200000D01*
X11346000Y-7150000D02*
X11346000Y-7250000D01*
X11296000Y-7200000D02*
X11396000Y-7200000D01*
X11600000Y-7150000D02*
X11600000Y-7250000D01*
X11550000Y-7200000D02*
X11650000Y-7200000D01*
X11854000Y-7150000D02*
X11854000Y-7250000D01*
X11804000Y-7200000D02*
X11904000Y-7200000D01*
X12446000Y-7150000D02*
X12446000Y-7250000D01*
X12396000Y-7200000D02*
X12496000Y-7200000D01*
X12700000Y-7150000D02*
X12700000Y-7250000D01*
X12650000Y-7200000D02*
X12750000Y-7200000D01*
X12954000Y-7150000D02*
X12954000Y-7250000D01*
X12904000Y-7200000D02*
X13004000Y-7200000D01*
X13542000Y-7150000D02*
X13542000Y-7250000D01*
X13492000Y-7200000D02*
X13592000Y-7200000D01*
X13796000Y-7150000D02*
X13796000Y-7250000D01*
X13746000Y-7200000D02*
X13846000Y-7200000D01*
X14050000Y-7150000D02*
X14050000Y-7250000D01*
X14000000Y-7200000D02*
X14100000Y-7200000D01*
D11*
X10608277Y-11292984D02*
X10608277Y-11092984D01*
X10608277Y-11092984D02*
X10655896Y-11092984D01*
X10655896Y-11092984D02*
X10684467Y-11102508D01*
X10684467Y-11102508D02*
X10703515Y-11121555D01*
X10703515Y-11121555D02*
X10713039Y-11140603D01*
X10713039Y-11140603D02*
X10722563Y-11178698D01*
X10722563Y-11178698D02*
X10722563Y-11207269D01*
X10722563Y-11207269D02*
X10713039Y-11245365D01*
X10713039Y-11245365D02*
X10703515Y-11264412D01*
X10703515Y-11264412D02*
X10684467Y-11283460D01*
X10684467Y-11283460D02*
X10655896Y-11292984D01*
X10655896Y-11292984D02*
X10608277Y-11292984D01*
X10808277Y-11292984D02*
X10808277Y-11159650D01*
X10808277Y-11197746D02*
X10817801Y-11178698D01*
X10817801Y-11178698D02*
X10827324Y-11169174D01*
X10827324Y-11169174D02*
X10846372Y-11159650D01*
X10846372Y-11159650D02*
X10865420Y-11159650D01*
X10932086Y-11292984D02*
X10932086Y-11159650D01*
X10932086Y-11092984D02*
X10922563Y-11102508D01*
X10922563Y-11102508D02*
X10932086Y-11112031D01*
X10932086Y-11112031D02*
X10941610Y-11102508D01*
X10941610Y-11102508D02*
X10932086Y-11092984D01*
X10932086Y-11092984D02*
X10932086Y-11112031D01*
X11055896Y-11292984D02*
X11036848Y-11283460D01*
X11036848Y-11283460D02*
X11027324Y-11264412D01*
X11027324Y-11264412D02*
X11027324Y-11092984D01*
X11160658Y-11292984D02*
X11141610Y-11283460D01*
X11141610Y-11283460D02*
X11132086Y-11264412D01*
X11132086Y-11264412D02*
X11132086Y-11092984D01*
X11389229Y-11292984D02*
X11389229Y-11092984D01*
X11389229Y-11092984D02*
X11455896Y-11235841D01*
X11455896Y-11235841D02*
X11522562Y-11092984D01*
X11522562Y-11092984D02*
X11522562Y-11292984D01*
X11703515Y-11292984D02*
X11703515Y-11188222D01*
X11703515Y-11188222D02*
X11693991Y-11169174D01*
X11693991Y-11169174D02*
X11674943Y-11159650D01*
X11674943Y-11159650D02*
X11636848Y-11159650D01*
X11636848Y-11159650D02*
X11617801Y-11169174D01*
X11703515Y-11283460D02*
X11684467Y-11292984D01*
X11684467Y-11292984D02*
X11636848Y-11292984D01*
X11636848Y-11292984D02*
X11617801Y-11283460D01*
X11617801Y-11283460D02*
X11608277Y-11264412D01*
X11608277Y-11264412D02*
X11608277Y-11245365D01*
X11608277Y-11245365D02*
X11617801Y-11226317D01*
X11617801Y-11226317D02*
X11636848Y-11216793D01*
X11636848Y-11216793D02*
X11684467Y-11216793D01*
X11684467Y-11216793D02*
X11703515Y-11207269D01*
X11798753Y-11159650D02*
X11798753Y-11359650D01*
X11798753Y-11169174D02*
X11817801Y-11159650D01*
X11817801Y-11159650D02*
X11855896Y-11159650D01*
X11855896Y-11159650D02*
X11874943Y-11169174D01*
X11874943Y-11169174D02*
X11884467Y-11178698D01*
X11884467Y-11178698D02*
X11893991Y-11197746D01*
X11893991Y-11197746D02*
X11893991Y-11254888D01*
X11893991Y-11254888D02*
X11884467Y-11273936D01*
X11884467Y-11273936D02*
X11874943Y-11283460D01*
X11874943Y-11283460D02*
X11855896Y-11292984D01*
X11855896Y-11292984D02*
X11817801Y-11292984D01*
X11817801Y-11292984D02*
X11798753Y-11283460D01*
X11979705Y-11273936D02*
X11989229Y-11283460D01*
X11989229Y-11283460D02*
X11979705Y-11292984D01*
X11979705Y-11292984D02*
X11970182Y-11283460D01*
X11970182Y-11283460D02*
X11979705Y-11273936D01*
X11979705Y-11273936D02*
X11979705Y-11292984D01*
X11979705Y-11169174D02*
X11989229Y-11178698D01*
X11989229Y-11178698D02*
X11979705Y-11188222D01*
X11979705Y-11188222D02*
X11970182Y-11178698D01*
X11970182Y-11178698D02*
X11979705Y-11169174D01*
X11979705Y-11169174D02*
X11979705Y-11188222D01*
D12*
X10317500Y-11606500D02*
X10347500Y-11636500D01*
X10347500Y-11606500D02*
X10317500Y-11636500D01*
D11*
X10646372Y-11512984D02*
X10665420Y-11512984D01*
X10665420Y-11512984D02*
X10684467Y-11522508D01*
X10684467Y-11522508D02*
X10693991Y-11532031D01*
X10693991Y-11532031D02*
X10703515Y-11551079D01*
X10703515Y-11551079D02*
X10713039Y-11589174D01*
X10713039Y-11589174D02*
X10713039Y-11636793D01*
X10713039Y-11636793D02*
X10703515Y-11674888D01*
X10703515Y-11674888D02*
X10693991Y-11693936D01*
X10693991Y-11693936D02*
X10684467Y-11703460D01*
X10684467Y-11703460D02*
X10665420Y-11712984D01*
X10665420Y-11712984D02*
X10646372Y-11712984D01*
X10646372Y-11712984D02*
X10627324Y-11703460D01*
X10627324Y-11703460D02*
X10617801Y-11693936D01*
X10617801Y-11693936D02*
X10608277Y-11674888D01*
X10608277Y-11674888D02*
X10598753Y-11636793D01*
X10598753Y-11636793D02*
X10598753Y-11589174D01*
X10598753Y-11589174D02*
X10608277Y-11551079D01*
X10608277Y-11551079D02*
X10617801Y-11532031D01*
X10617801Y-11532031D02*
X10627324Y-11522508D01*
X10627324Y-11522508D02*
X10646372Y-11512984D01*
X10798753Y-11693936D02*
X10808277Y-11703460D01*
X10808277Y-11703460D02*
X10798753Y-11712984D01*
X10798753Y-11712984D02*
X10789229Y-11703460D01*
X10789229Y-11703460D02*
X10798753Y-11693936D01*
X10798753Y-11693936D02*
X10798753Y-11712984D01*
X10874944Y-11512984D02*
X10998753Y-11512984D01*
X10998753Y-11512984D02*
X10932086Y-11589174D01*
X10932086Y-11589174D02*
X10960658Y-11589174D01*
X10960658Y-11589174D02*
X10979705Y-11598698D01*
X10979705Y-11598698D02*
X10989229Y-11608222D01*
X10989229Y-11608222D02*
X10998753Y-11627269D01*
X10998753Y-11627269D02*
X10998753Y-11674888D01*
X10998753Y-11674888D02*
X10989229Y-11693936D01*
X10989229Y-11693936D02*
X10979705Y-11703460D01*
X10979705Y-11703460D02*
X10960658Y-11712984D01*
X10960658Y-11712984D02*
X10903515Y-11712984D01*
X10903515Y-11712984D02*
X10884467Y-11703460D01*
X10884467Y-11703460D02*
X10874944Y-11693936D01*
X11122563Y-11512984D02*
X11141610Y-11512984D01*
X11141610Y-11512984D02*
X11160658Y-11522508D01*
X11160658Y-11522508D02*
X11170182Y-11532031D01*
X11170182Y-11532031D02*
X11179705Y-11551079D01*
X11179705Y-11551079D02*
X11189229Y-11589174D01*
X11189229Y-11589174D02*
X11189229Y-11636793D01*
X11189229Y-11636793D02*
X11179705Y-11674888D01*
X11179705Y-11674888D02*
X11170182Y-11693936D01*
X11170182Y-11693936D02*
X11160658Y-11703460D01*
X11160658Y-11703460D02*
X11141610Y-11712984D01*
X11141610Y-11712984D02*
X11122563Y-11712984D01*
X11122563Y-11712984D02*
X11103515Y-11703460D01*
X11103515Y-11703460D02*
X11093991Y-11693936D01*
X11093991Y-11693936D02*
X11084467Y-11674888D01*
X11084467Y-11674888D02*
X11074944Y-11636793D01*
X11074944Y-11636793D02*
X11074944Y-11589174D01*
X11074944Y-11589174D02*
X11084467Y-11551079D01*
X11084467Y-11551079D02*
X11093991Y-11532031D01*
X11093991Y-11532031D02*
X11103515Y-11522508D01*
X11103515Y-11522508D02*
X11122563Y-11512984D01*
X11313039Y-11512984D02*
X11332086Y-11512984D01*
X11332086Y-11512984D02*
X11351134Y-11522508D01*
X11351134Y-11522508D02*
X11360658Y-11532031D01*
X11360658Y-11532031D02*
X11370182Y-11551079D01*
X11370182Y-11551079D02*
X11379705Y-11589174D01*
X11379705Y-11589174D02*
X11379705Y-11636793D01*
X11379705Y-11636793D02*
X11370182Y-11674888D01*
X11370182Y-11674888D02*
X11360658Y-11693936D01*
X11360658Y-11693936D02*
X11351134Y-11703460D01*
X11351134Y-11703460D02*
X11332086Y-11712984D01*
X11332086Y-11712984D02*
X11313039Y-11712984D01*
X11313039Y-11712984D02*
X11293991Y-11703460D01*
X11293991Y-11703460D02*
X11284467Y-11693936D01*
X11284467Y-11693936D02*
X11274943Y-11674888D01*
X11274943Y-11674888D02*
X11265420Y-11636793D01*
X11265420Y-11636793D02*
X11265420Y-11589174D01*
X11265420Y-11589174D02*
X11274943Y-11551079D01*
X11274943Y-11551079D02*
X11284467Y-11532031D01*
X11284467Y-11532031D02*
X11293991Y-11522508D01*
X11293991Y-11522508D02*
X11313039Y-11512984D01*
X11465420Y-11712984D02*
X11465420Y-11579650D01*
X11465420Y-11598698D02*
X11474943Y-11589174D01*
X11474943Y-11589174D02*
X11493991Y-11579650D01*
X11493991Y-11579650D02*
X11522563Y-11579650D01*
X11522563Y-11579650D02*
X11541610Y-11589174D01*
X11541610Y-11589174D02*
X11551134Y-11608222D01*
X11551134Y-11608222D02*
X11551134Y-11712984D01*
X11551134Y-11608222D02*
X11560658Y-11589174D01*
X11560658Y-11589174D02*
X11579705Y-11579650D01*
X11579705Y-11579650D02*
X11608277Y-11579650D01*
X11608277Y-11579650D02*
X11627324Y-11589174D01*
X11627324Y-11589174D02*
X11636848Y-11608222D01*
X11636848Y-11608222D02*
X11636848Y-11712984D01*
X11732086Y-11712984D02*
X11732086Y-11579650D01*
X11732086Y-11598698D02*
X11741610Y-11589174D01*
X11741610Y-11589174D02*
X11760658Y-11579650D01*
X11760658Y-11579650D02*
X11789229Y-11579650D01*
X11789229Y-11579650D02*
X11808277Y-11589174D01*
X11808277Y-11589174D02*
X11817801Y-11608222D01*
X11817801Y-11608222D02*
X11817801Y-11712984D01*
X11817801Y-11608222D02*
X11827324Y-11589174D01*
X11827324Y-11589174D02*
X11846372Y-11579650D01*
X11846372Y-11579650D02*
X11874943Y-11579650D01*
X11874943Y-11579650D02*
X11893991Y-11589174D01*
X11893991Y-11589174D02*
X11903515Y-11608222D01*
X11903515Y-11608222D02*
X11903515Y-11712984D01*
X12293991Y-11503460D02*
X12122563Y-11760603D01*
X12551134Y-11512984D02*
X12570182Y-11512984D01*
X12570182Y-11512984D02*
X12589229Y-11522508D01*
X12589229Y-11522508D02*
X12598753Y-11532031D01*
X12598753Y-11532031D02*
X12608277Y-11551079D01*
X12608277Y-11551079D02*
X12617801Y-11589174D01*
X12617801Y-11589174D02*
X12617801Y-11636793D01*
X12617801Y-11636793D02*
X12608277Y-11674888D01*
X12608277Y-11674888D02*
X12598753Y-11693936D01*
X12598753Y-11693936D02*
X12589229Y-11703460D01*
X12589229Y-11703460D02*
X12570182Y-11712984D01*
X12570182Y-11712984D02*
X12551134Y-11712984D01*
X12551134Y-11712984D02*
X12532086Y-11703460D01*
X12532086Y-11703460D02*
X12522563Y-11693936D01*
X12522563Y-11693936D02*
X12513039Y-11674888D01*
X12513039Y-11674888D02*
X12503515Y-11636793D01*
X12503515Y-11636793D02*
X12503515Y-11589174D01*
X12503515Y-11589174D02*
X12513039Y-11551079D01*
X12513039Y-11551079D02*
X12522563Y-11532031D01*
X12522563Y-11532031D02*
X12532086Y-11522508D01*
X12532086Y-11522508D02*
X12551134Y-11512984D01*
X12703515Y-11693936D02*
X12713039Y-11703460D01*
X12713039Y-11703460D02*
X12703515Y-11712984D01*
X12703515Y-11712984D02*
X12693991Y-11703460D01*
X12693991Y-11703460D02*
X12703515Y-11693936D01*
X12703515Y-11693936D02*
X12703515Y-11712984D01*
X12836848Y-11512984D02*
X12855896Y-11512984D01*
X12855896Y-11512984D02*
X12874944Y-11522508D01*
X12874944Y-11522508D02*
X12884467Y-11532031D01*
X12884467Y-11532031D02*
X12893991Y-11551079D01*
X12893991Y-11551079D02*
X12903515Y-11589174D01*
X12903515Y-11589174D02*
X12903515Y-11636793D01*
X12903515Y-11636793D02*
X12893991Y-11674888D01*
X12893991Y-11674888D02*
X12884467Y-11693936D01*
X12884467Y-11693936D02*
X12874944Y-11703460D01*
X12874944Y-11703460D02*
X12855896Y-11712984D01*
X12855896Y-11712984D02*
X12836848Y-11712984D01*
X12836848Y-11712984D02*
X12817801Y-11703460D01*
X12817801Y-11703460D02*
X12808277Y-11693936D01*
X12808277Y-11693936D02*
X12798753Y-11674888D01*
X12798753Y-11674888D02*
X12789229Y-11636793D01*
X12789229Y-11636793D02*
X12789229Y-11589174D01*
X12789229Y-11589174D02*
X12798753Y-11551079D01*
X12798753Y-11551079D02*
X12808277Y-11532031D01*
X12808277Y-11532031D02*
X12817801Y-11522508D01*
X12817801Y-11522508D02*
X12836848Y-11512984D01*
X13093991Y-11712984D02*
X12979706Y-11712984D01*
X13036848Y-11712984D02*
X13036848Y-11512984D01*
X13036848Y-11512984D02*
X13017801Y-11541555D01*
X13017801Y-11541555D02*
X12998753Y-11560603D01*
X12998753Y-11560603D02*
X12979706Y-11570127D01*
X13284467Y-11712984D02*
X13170182Y-11712984D01*
X13227325Y-11712984D02*
X13227325Y-11512984D01*
X13227325Y-11512984D02*
X13208277Y-11541555D01*
X13208277Y-11541555D02*
X13189229Y-11560603D01*
X13189229Y-11560603D02*
X13170182Y-11570127D01*
X13398753Y-11598698D02*
X13379706Y-11589174D01*
X13379706Y-11589174D02*
X13370182Y-11579650D01*
X13370182Y-11579650D02*
X13360658Y-11560603D01*
X13360658Y-11560603D02*
X13360658Y-11551079D01*
X13360658Y-11551079D02*
X13370182Y-11532031D01*
X13370182Y-11532031D02*
X13379706Y-11522508D01*
X13379706Y-11522508D02*
X13398753Y-11512984D01*
X13398753Y-11512984D02*
X13436848Y-11512984D01*
X13436848Y-11512984D02*
X13455896Y-11522508D01*
X13455896Y-11522508D02*
X13465420Y-11532031D01*
X13465420Y-11532031D02*
X13474944Y-11551079D01*
X13474944Y-11551079D02*
X13474944Y-11560603D01*
X13474944Y-11560603D02*
X13465420Y-11579650D01*
X13465420Y-11579650D02*
X13455896Y-11589174D01*
X13455896Y-11589174D02*
X13436848Y-11598698D01*
X13436848Y-11598698D02*
X13398753Y-11598698D01*
X13398753Y-11598698D02*
X13379706Y-11608222D01*
X13379706Y-11608222D02*
X13370182Y-11617746D01*
X13370182Y-11617746D02*
X13360658Y-11636793D01*
X13360658Y-11636793D02*
X13360658Y-11674888D01*
X13360658Y-11674888D02*
X13370182Y-11693936D01*
X13370182Y-11693936D02*
X13379706Y-11703460D01*
X13379706Y-11703460D02*
X13398753Y-11712984D01*
X13398753Y-11712984D02*
X13436848Y-11712984D01*
X13436848Y-11712984D02*
X13455896Y-11703460D01*
X13455896Y-11703460D02*
X13465420Y-11693936D01*
X13465420Y-11693936D02*
X13474944Y-11674888D01*
X13474944Y-11674888D02*
X13474944Y-11636793D01*
X13474944Y-11636793D02*
X13465420Y-11617746D01*
X13465420Y-11617746D02*
X13455896Y-11608222D01*
X13455896Y-11608222D02*
X13436848Y-11598698D01*
X13551134Y-11512984D02*
X13551134Y-11551079D01*
X13627325Y-11512984D02*
X13627325Y-11551079D01*
X13922563Y-11789174D02*
X13913039Y-11779650D01*
X13913039Y-11779650D02*
X13893991Y-11751079D01*
X13893991Y-11751079D02*
X13884468Y-11732031D01*
X13884468Y-11732031D02*
X13874944Y-11703460D01*
X13874944Y-11703460D02*
X13865420Y-11655841D01*
X13865420Y-11655841D02*
X13865420Y-11617746D01*
X13865420Y-11617746D02*
X13874944Y-11570127D01*
X13874944Y-11570127D02*
X13884468Y-11541555D01*
X13884468Y-11541555D02*
X13893991Y-11522508D01*
X13893991Y-11522508D02*
X13913039Y-11493936D01*
X13913039Y-11493936D02*
X13922563Y-11484412D01*
X13989229Y-11532031D02*
X13998753Y-11522508D01*
X13998753Y-11522508D02*
X14017801Y-11512984D01*
X14017801Y-11512984D02*
X14065420Y-11512984D01*
X14065420Y-11512984D02*
X14084468Y-11522508D01*
X14084468Y-11522508D02*
X14093991Y-11532031D01*
X14093991Y-11532031D02*
X14103515Y-11551079D01*
X14103515Y-11551079D02*
X14103515Y-11570127D01*
X14103515Y-11570127D02*
X14093991Y-11598698D01*
X14093991Y-11598698D02*
X13979706Y-11712984D01*
X13979706Y-11712984D02*
X14103515Y-11712984D01*
X14341610Y-11712984D02*
X14341610Y-11512984D01*
X14427325Y-11712984D02*
X14427325Y-11608222D01*
X14427325Y-11608222D02*
X14417801Y-11589174D01*
X14417801Y-11589174D02*
X14398753Y-11579650D01*
X14398753Y-11579650D02*
X14370182Y-11579650D01*
X14370182Y-11579650D02*
X14351134Y-11589174D01*
X14351134Y-11589174D02*
X14341610Y-11598698D01*
X14551134Y-11712984D02*
X14532087Y-11703460D01*
X14532087Y-11703460D02*
X14522563Y-11693936D01*
X14522563Y-11693936D02*
X14513039Y-11674888D01*
X14513039Y-11674888D02*
X14513039Y-11617746D01*
X14513039Y-11617746D02*
X14522563Y-11598698D01*
X14522563Y-11598698D02*
X14532087Y-11589174D01*
X14532087Y-11589174D02*
X14551134Y-11579650D01*
X14551134Y-11579650D02*
X14579706Y-11579650D01*
X14579706Y-11579650D02*
X14598753Y-11589174D01*
X14598753Y-11589174D02*
X14608277Y-11598698D01*
X14608277Y-11598698D02*
X14617801Y-11617746D01*
X14617801Y-11617746D02*
X14617801Y-11674888D01*
X14617801Y-11674888D02*
X14608277Y-11693936D01*
X14608277Y-11693936D02*
X14598753Y-11703460D01*
X14598753Y-11703460D02*
X14579706Y-11712984D01*
X14579706Y-11712984D02*
X14551134Y-11712984D01*
X14732087Y-11712984D02*
X14713039Y-11703460D01*
X14713039Y-11703460D02*
X14703515Y-11684412D01*
X14703515Y-11684412D02*
X14703515Y-11512984D01*
X14884468Y-11703460D02*
X14865420Y-11712984D01*
X14865420Y-11712984D02*
X14827325Y-11712984D01*
X14827325Y-11712984D02*
X14808277Y-11703460D01*
X14808277Y-11703460D02*
X14798753Y-11684412D01*
X14798753Y-11684412D02*
X14798753Y-11608222D01*
X14798753Y-11608222D02*
X14808277Y-11589174D01*
X14808277Y-11589174D02*
X14827325Y-11579650D01*
X14827325Y-11579650D02*
X14865420Y-11579650D01*
X14865420Y-11579650D02*
X14884468Y-11589174D01*
X14884468Y-11589174D02*
X14893991Y-11608222D01*
X14893991Y-11608222D02*
X14893991Y-11627269D01*
X14893991Y-11627269D02*
X14798753Y-11646317D01*
X14970182Y-11703460D02*
X14989230Y-11712984D01*
X14989230Y-11712984D02*
X15027325Y-11712984D01*
X15027325Y-11712984D02*
X15046372Y-11703460D01*
X15046372Y-11703460D02*
X15055896Y-11684412D01*
X15055896Y-11684412D02*
X15055896Y-11674888D01*
X15055896Y-11674888D02*
X15046372Y-11655841D01*
X15046372Y-11655841D02*
X15027325Y-11646317D01*
X15027325Y-11646317D02*
X14998753Y-11646317D01*
X14998753Y-11646317D02*
X14979706Y-11636793D01*
X14979706Y-11636793D02*
X14970182Y-11617746D01*
X14970182Y-11617746D02*
X14970182Y-11608222D01*
X14970182Y-11608222D02*
X14979706Y-11589174D01*
X14979706Y-11589174D02*
X14998753Y-11579650D01*
X14998753Y-11579650D02*
X15027325Y-11579650D01*
X15027325Y-11579650D02*
X15046372Y-11589174D01*
X15122563Y-11789174D02*
X15132087Y-11779650D01*
X15132087Y-11779650D02*
X15151134Y-11751079D01*
X15151134Y-11751079D02*
X15160658Y-11732031D01*
X15160658Y-11732031D02*
X15170182Y-11703460D01*
X15170182Y-11703460D02*
X15179706Y-11655841D01*
X15179706Y-11655841D02*
X15179706Y-11617746D01*
X15179706Y-11617746D02*
X15170182Y-11570127D01*
X15170182Y-11570127D02*
X15160658Y-11541555D01*
X15160658Y-11541555D02*
X15151134Y-11522508D01*
X15151134Y-11522508D02*
X15132087Y-11493936D01*
X15132087Y-11493936D02*
X15122563Y-11484412D01*
D12*
X10347500Y-11885500D02*
G75*
G02*
X10267500Y-11885500I-40000J0D01*
G01*
X10267500Y-11885500D02*
G75*
G02*
X10347500Y-11885500I40000J0D01*
G01*
D11*
X10646372Y-11776984D02*
X10665420Y-11776984D01*
X10665420Y-11776984D02*
X10684467Y-11786508D01*
X10684467Y-11786508D02*
X10693991Y-11796031D01*
X10693991Y-11796031D02*
X10703515Y-11815079D01*
X10703515Y-11815079D02*
X10713039Y-11853174D01*
X10713039Y-11853174D02*
X10713039Y-11900793D01*
X10713039Y-11900793D02*
X10703515Y-11938888D01*
X10703515Y-11938888D02*
X10693991Y-11957936D01*
X10693991Y-11957936D02*
X10684467Y-11967460D01*
X10684467Y-11967460D02*
X10665420Y-11976984D01*
X10665420Y-11976984D02*
X10646372Y-11976984D01*
X10646372Y-11976984D02*
X10627324Y-11967460D01*
X10627324Y-11967460D02*
X10617801Y-11957936D01*
X10617801Y-11957936D02*
X10608277Y-11938888D01*
X10608277Y-11938888D02*
X10598753Y-11900793D01*
X10598753Y-11900793D02*
X10598753Y-11853174D01*
X10598753Y-11853174D02*
X10608277Y-11815079D01*
X10608277Y-11815079D02*
X10617801Y-11796031D01*
X10617801Y-11796031D02*
X10627324Y-11786508D01*
X10627324Y-11786508D02*
X10646372Y-11776984D01*
X10798753Y-11957936D02*
X10808277Y-11967460D01*
X10808277Y-11967460D02*
X10798753Y-11976984D01*
X10798753Y-11976984D02*
X10789229Y-11967460D01*
X10789229Y-11967460D02*
X10798753Y-11957936D01*
X10798753Y-11957936D02*
X10798753Y-11976984D01*
X10922563Y-11862698D02*
X10903515Y-11853174D01*
X10903515Y-11853174D02*
X10893991Y-11843650D01*
X10893991Y-11843650D02*
X10884467Y-11824603D01*
X10884467Y-11824603D02*
X10884467Y-11815079D01*
X10884467Y-11815079D02*
X10893991Y-11796031D01*
X10893991Y-11796031D02*
X10903515Y-11786508D01*
X10903515Y-11786508D02*
X10922563Y-11776984D01*
X10922563Y-11776984D02*
X10960658Y-11776984D01*
X10960658Y-11776984D02*
X10979705Y-11786508D01*
X10979705Y-11786508D02*
X10989229Y-11796031D01*
X10989229Y-11796031D02*
X10998753Y-11815079D01*
X10998753Y-11815079D02*
X10998753Y-11824603D01*
X10998753Y-11824603D02*
X10989229Y-11843650D01*
X10989229Y-11843650D02*
X10979705Y-11853174D01*
X10979705Y-11853174D02*
X10960658Y-11862698D01*
X10960658Y-11862698D02*
X10922563Y-11862698D01*
X10922563Y-11862698D02*
X10903515Y-11872222D01*
X10903515Y-11872222D02*
X10893991Y-11881746D01*
X10893991Y-11881746D02*
X10884467Y-11900793D01*
X10884467Y-11900793D02*
X10884467Y-11938888D01*
X10884467Y-11938888D02*
X10893991Y-11957936D01*
X10893991Y-11957936D02*
X10903515Y-11967460D01*
X10903515Y-11967460D02*
X10922563Y-11976984D01*
X10922563Y-11976984D02*
X10960658Y-11976984D01*
X10960658Y-11976984D02*
X10979705Y-11967460D01*
X10979705Y-11967460D02*
X10989229Y-11957936D01*
X10989229Y-11957936D02*
X10998753Y-11938888D01*
X10998753Y-11938888D02*
X10998753Y-11900793D01*
X10998753Y-11900793D02*
X10989229Y-11881746D01*
X10989229Y-11881746D02*
X10979705Y-11872222D01*
X10979705Y-11872222D02*
X10960658Y-11862698D01*
X11122563Y-11776984D02*
X11141610Y-11776984D01*
X11141610Y-11776984D02*
X11160658Y-11786508D01*
X11160658Y-11786508D02*
X11170182Y-11796031D01*
X11170182Y-11796031D02*
X11179705Y-11815079D01*
X11179705Y-11815079D02*
X11189229Y-11853174D01*
X11189229Y-11853174D02*
X11189229Y-11900793D01*
X11189229Y-11900793D02*
X11179705Y-11938888D01*
X11179705Y-11938888D02*
X11170182Y-11957936D01*
X11170182Y-11957936D02*
X11160658Y-11967460D01*
X11160658Y-11967460D02*
X11141610Y-11976984D01*
X11141610Y-11976984D02*
X11122563Y-11976984D01*
X11122563Y-11976984D02*
X11103515Y-11967460D01*
X11103515Y-11967460D02*
X11093991Y-11957936D01*
X11093991Y-11957936D02*
X11084467Y-11938888D01*
X11084467Y-11938888D02*
X11074944Y-11900793D01*
X11074944Y-11900793D02*
X11074944Y-11853174D01*
X11074944Y-11853174D02*
X11084467Y-11815079D01*
X11084467Y-11815079D02*
X11093991Y-11796031D01*
X11093991Y-11796031D02*
X11103515Y-11786508D01*
X11103515Y-11786508D02*
X11122563Y-11776984D01*
X11313039Y-11776984D02*
X11332086Y-11776984D01*
X11332086Y-11776984D02*
X11351134Y-11786508D01*
X11351134Y-11786508D02*
X11360658Y-11796031D01*
X11360658Y-11796031D02*
X11370182Y-11815079D01*
X11370182Y-11815079D02*
X11379705Y-11853174D01*
X11379705Y-11853174D02*
X11379705Y-11900793D01*
X11379705Y-11900793D02*
X11370182Y-11938888D01*
X11370182Y-11938888D02*
X11360658Y-11957936D01*
X11360658Y-11957936D02*
X11351134Y-11967460D01*
X11351134Y-11967460D02*
X11332086Y-11976984D01*
X11332086Y-11976984D02*
X11313039Y-11976984D01*
X11313039Y-11976984D02*
X11293991Y-11967460D01*
X11293991Y-11967460D02*
X11284467Y-11957936D01*
X11284467Y-11957936D02*
X11274943Y-11938888D01*
X11274943Y-11938888D02*
X11265420Y-11900793D01*
X11265420Y-11900793D02*
X11265420Y-11853174D01*
X11265420Y-11853174D02*
X11274943Y-11815079D01*
X11274943Y-11815079D02*
X11284467Y-11796031D01*
X11284467Y-11796031D02*
X11293991Y-11786508D01*
X11293991Y-11786508D02*
X11313039Y-11776984D01*
X11465420Y-11976984D02*
X11465420Y-11843650D01*
X11465420Y-11862698D02*
X11474943Y-11853174D01*
X11474943Y-11853174D02*
X11493991Y-11843650D01*
X11493991Y-11843650D02*
X11522563Y-11843650D01*
X11522563Y-11843650D02*
X11541610Y-11853174D01*
X11541610Y-11853174D02*
X11551134Y-11872222D01*
X11551134Y-11872222D02*
X11551134Y-11976984D01*
X11551134Y-11872222D02*
X11560658Y-11853174D01*
X11560658Y-11853174D02*
X11579705Y-11843650D01*
X11579705Y-11843650D02*
X11608277Y-11843650D01*
X11608277Y-11843650D02*
X11627324Y-11853174D01*
X11627324Y-11853174D02*
X11636848Y-11872222D01*
X11636848Y-11872222D02*
X11636848Y-11976984D01*
X11732086Y-11976984D02*
X11732086Y-11843650D01*
X11732086Y-11862698D02*
X11741610Y-11853174D01*
X11741610Y-11853174D02*
X11760658Y-11843650D01*
X11760658Y-11843650D02*
X11789229Y-11843650D01*
X11789229Y-11843650D02*
X11808277Y-11853174D01*
X11808277Y-11853174D02*
X11817801Y-11872222D01*
X11817801Y-11872222D02*
X11817801Y-11976984D01*
X11817801Y-11872222D02*
X11827324Y-11853174D01*
X11827324Y-11853174D02*
X11846372Y-11843650D01*
X11846372Y-11843650D02*
X11874943Y-11843650D01*
X11874943Y-11843650D02*
X11893991Y-11853174D01*
X11893991Y-11853174D02*
X11903515Y-11872222D01*
X11903515Y-11872222D02*
X11903515Y-11976984D01*
X12293991Y-11767460D02*
X12122563Y-12024603D01*
X12551134Y-11776984D02*
X12570182Y-11776984D01*
X12570182Y-11776984D02*
X12589229Y-11786508D01*
X12589229Y-11786508D02*
X12598753Y-11796031D01*
X12598753Y-11796031D02*
X12608277Y-11815079D01*
X12608277Y-11815079D02*
X12617801Y-11853174D01*
X12617801Y-11853174D02*
X12617801Y-11900793D01*
X12617801Y-11900793D02*
X12608277Y-11938888D01*
X12608277Y-11938888D02*
X12598753Y-11957936D01*
X12598753Y-11957936D02*
X12589229Y-11967460D01*
X12589229Y-11967460D02*
X12570182Y-11976984D01*
X12570182Y-11976984D02*
X12551134Y-11976984D01*
X12551134Y-11976984D02*
X12532086Y-11967460D01*
X12532086Y-11967460D02*
X12522563Y-11957936D01*
X12522563Y-11957936D02*
X12513039Y-11938888D01*
X12513039Y-11938888D02*
X12503515Y-11900793D01*
X12503515Y-11900793D02*
X12503515Y-11853174D01*
X12503515Y-11853174D02*
X12513039Y-11815079D01*
X12513039Y-11815079D02*
X12522563Y-11796031D01*
X12522563Y-11796031D02*
X12532086Y-11786508D01*
X12532086Y-11786508D02*
X12551134Y-11776984D01*
X12703515Y-11957936D02*
X12713039Y-11967460D01*
X12713039Y-11967460D02*
X12703515Y-11976984D01*
X12703515Y-11976984D02*
X12693991Y-11967460D01*
X12693991Y-11967460D02*
X12703515Y-11957936D01*
X12703515Y-11957936D02*
X12703515Y-11976984D01*
X12836848Y-11776984D02*
X12855896Y-11776984D01*
X12855896Y-11776984D02*
X12874944Y-11786508D01*
X12874944Y-11786508D02*
X12884467Y-11796031D01*
X12884467Y-11796031D02*
X12893991Y-11815079D01*
X12893991Y-11815079D02*
X12903515Y-11853174D01*
X12903515Y-11853174D02*
X12903515Y-11900793D01*
X12903515Y-11900793D02*
X12893991Y-11938888D01*
X12893991Y-11938888D02*
X12884467Y-11957936D01*
X12884467Y-11957936D02*
X12874944Y-11967460D01*
X12874944Y-11967460D02*
X12855896Y-11976984D01*
X12855896Y-11976984D02*
X12836848Y-11976984D01*
X12836848Y-11976984D02*
X12817801Y-11967460D01*
X12817801Y-11967460D02*
X12808277Y-11957936D01*
X12808277Y-11957936D02*
X12798753Y-11938888D01*
X12798753Y-11938888D02*
X12789229Y-11900793D01*
X12789229Y-11900793D02*
X12789229Y-11853174D01*
X12789229Y-11853174D02*
X12798753Y-11815079D01*
X12798753Y-11815079D02*
X12808277Y-11796031D01*
X12808277Y-11796031D02*
X12817801Y-11786508D01*
X12817801Y-11786508D02*
X12836848Y-11776984D01*
X12970182Y-11776984D02*
X13093991Y-11776984D01*
X13093991Y-11776984D02*
X13027325Y-11853174D01*
X13027325Y-11853174D02*
X13055896Y-11853174D01*
X13055896Y-11853174D02*
X13074944Y-11862698D01*
X13074944Y-11862698D02*
X13084467Y-11872222D01*
X13084467Y-11872222D02*
X13093991Y-11891269D01*
X13093991Y-11891269D02*
X13093991Y-11938888D01*
X13093991Y-11938888D02*
X13084467Y-11957936D01*
X13084467Y-11957936D02*
X13074944Y-11967460D01*
X13074944Y-11967460D02*
X13055896Y-11976984D01*
X13055896Y-11976984D02*
X12998753Y-11976984D01*
X12998753Y-11976984D02*
X12979706Y-11967460D01*
X12979706Y-11967460D02*
X12970182Y-11957936D01*
X13284467Y-11976984D02*
X13170182Y-11976984D01*
X13227325Y-11976984D02*
X13227325Y-11776984D01*
X13227325Y-11776984D02*
X13208277Y-11805555D01*
X13208277Y-11805555D02*
X13189229Y-11824603D01*
X13189229Y-11824603D02*
X13170182Y-11834127D01*
X13465420Y-11776984D02*
X13370182Y-11776984D01*
X13370182Y-11776984D02*
X13360658Y-11872222D01*
X13360658Y-11872222D02*
X13370182Y-11862698D01*
X13370182Y-11862698D02*
X13389229Y-11853174D01*
X13389229Y-11853174D02*
X13436848Y-11853174D01*
X13436848Y-11853174D02*
X13455896Y-11862698D01*
X13455896Y-11862698D02*
X13465420Y-11872222D01*
X13465420Y-11872222D02*
X13474944Y-11891269D01*
X13474944Y-11891269D02*
X13474944Y-11938888D01*
X13474944Y-11938888D02*
X13465420Y-11957936D01*
X13465420Y-11957936D02*
X13455896Y-11967460D01*
X13455896Y-11967460D02*
X13436848Y-11976984D01*
X13436848Y-11976984D02*
X13389229Y-11976984D01*
X13389229Y-11976984D02*
X13370182Y-11967460D01*
X13370182Y-11967460D02*
X13360658Y-11957936D01*
X13551134Y-11776984D02*
X13551134Y-11815079D01*
X13627325Y-11776984D02*
X13627325Y-11815079D01*
X13922563Y-12053174D02*
X13913039Y-12043650D01*
X13913039Y-12043650D02*
X13893991Y-12015079D01*
X13893991Y-12015079D02*
X13884468Y-11996031D01*
X13884468Y-11996031D02*
X13874944Y-11967460D01*
X13874944Y-11967460D02*
X13865420Y-11919841D01*
X13865420Y-11919841D02*
X13865420Y-11881746D01*
X13865420Y-11881746D02*
X13874944Y-11834127D01*
X13874944Y-11834127D02*
X13884468Y-11805555D01*
X13884468Y-11805555D02*
X13893991Y-11786508D01*
X13893991Y-11786508D02*
X13913039Y-11757936D01*
X13913039Y-11757936D02*
X13922563Y-11748412D01*
X13979706Y-11776984D02*
X14103515Y-11776984D01*
X14103515Y-11776984D02*
X14036848Y-11853174D01*
X14036848Y-11853174D02*
X14065420Y-11853174D01*
X14065420Y-11853174D02*
X14084468Y-11862698D01*
X14084468Y-11862698D02*
X14093991Y-11872222D01*
X14093991Y-11872222D02*
X14103515Y-11891269D01*
X14103515Y-11891269D02*
X14103515Y-11938888D01*
X14103515Y-11938888D02*
X14093991Y-11957936D01*
X14093991Y-11957936D02*
X14084468Y-11967460D01*
X14084468Y-11967460D02*
X14065420Y-11976984D01*
X14065420Y-11976984D02*
X14008277Y-11976984D01*
X14008277Y-11976984D02*
X13989229Y-11967460D01*
X13989229Y-11967460D02*
X13979706Y-11957936D01*
X14179706Y-11796031D02*
X14189229Y-11786508D01*
X14189229Y-11786508D02*
X14208277Y-11776984D01*
X14208277Y-11776984D02*
X14255896Y-11776984D01*
X14255896Y-11776984D02*
X14274944Y-11786508D01*
X14274944Y-11786508D02*
X14284468Y-11796031D01*
X14284468Y-11796031D02*
X14293991Y-11815079D01*
X14293991Y-11815079D02*
X14293991Y-11834127D01*
X14293991Y-11834127D02*
X14284468Y-11862698D01*
X14284468Y-11862698D02*
X14170182Y-11976984D01*
X14170182Y-11976984D02*
X14293991Y-11976984D01*
X14532087Y-11976984D02*
X14532087Y-11776984D01*
X14617801Y-11976984D02*
X14617801Y-11872222D01*
X14617801Y-11872222D02*
X14608277Y-11853174D01*
X14608277Y-11853174D02*
X14589230Y-11843650D01*
X14589230Y-11843650D02*
X14560658Y-11843650D01*
X14560658Y-11843650D02*
X14541610Y-11853174D01*
X14541610Y-11853174D02*
X14532087Y-11862698D01*
X14741610Y-11976984D02*
X14722563Y-11967460D01*
X14722563Y-11967460D02*
X14713039Y-11957936D01*
X14713039Y-11957936D02*
X14703515Y-11938888D01*
X14703515Y-11938888D02*
X14703515Y-11881746D01*
X14703515Y-11881746D02*
X14713039Y-11862698D01*
X14713039Y-11862698D02*
X14722563Y-11853174D01*
X14722563Y-11853174D02*
X14741610Y-11843650D01*
X14741610Y-11843650D02*
X14770182Y-11843650D01*
X14770182Y-11843650D02*
X14789230Y-11853174D01*
X14789230Y-11853174D02*
X14798753Y-11862698D01*
X14798753Y-11862698D02*
X14808277Y-11881746D01*
X14808277Y-11881746D02*
X14808277Y-11938888D01*
X14808277Y-11938888D02*
X14798753Y-11957936D01*
X14798753Y-11957936D02*
X14789230Y-11967460D01*
X14789230Y-11967460D02*
X14770182Y-11976984D01*
X14770182Y-11976984D02*
X14741610Y-11976984D01*
X14922563Y-11976984D02*
X14903515Y-11967460D01*
X14903515Y-11967460D02*
X14893991Y-11948412D01*
X14893991Y-11948412D02*
X14893991Y-11776984D01*
X15074944Y-11967460D02*
X15055896Y-11976984D01*
X15055896Y-11976984D02*
X15017801Y-11976984D01*
X15017801Y-11976984D02*
X14998753Y-11967460D01*
X14998753Y-11967460D02*
X14989230Y-11948412D01*
X14989230Y-11948412D02*
X14989230Y-11872222D01*
X14989230Y-11872222D02*
X14998753Y-11853174D01*
X14998753Y-11853174D02*
X15017801Y-11843650D01*
X15017801Y-11843650D02*
X15055896Y-11843650D01*
X15055896Y-11843650D02*
X15074944Y-11853174D01*
X15074944Y-11853174D02*
X15084468Y-11872222D01*
X15084468Y-11872222D02*
X15084468Y-11891269D01*
X15084468Y-11891269D02*
X14989230Y-11910317D01*
X15160658Y-11967460D02*
X15179706Y-11976984D01*
X15179706Y-11976984D02*
X15217801Y-11976984D01*
X15217801Y-11976984D02*
X15236849Y-11967460D01*
X15236849Y-11967460D02*
X15246372Y-11948412D01*
X15246372Y-11948412D02*
X15246372Y-11938888D01*
X15246372Y-11938888D02*
X15236849Y-11919841D01*
X15236849Y-11919841D02*
X15217801Y-11910317D01*
X15217801Y-11910317D02*
X15189230Y-11910317D01*
X15189230Y-11910317D02*
X15170182Y-11900793D01*
X15170182Y-11900793D02*
X15160658Y-11881746D01*
X15160658Y-11881746D02*
X15160658Y-11872222D01*
X15160658Y-11872222D02*
X15170182Y-11853174D01*
X15170182Y-11853174D02*
X15189230Y-11843650D01*
X15189230Y-11843650D02*
X15217801Y-11843650D01*
X15217801Y-11843650D02*
X15236849Y-11853174D01*
X15313039Y-12053174D02*
X15322563Y-12043650D01*
X15322563Y-12043650D02*
X15341611Y-12015079D01*
X15341611Y-12015079D02*
X15351134Y-11996031D01*
X15351134Y-11996031D02*
X15360658Y-11967460D01*
X15360658Y-11967460D02*
X15370182Y-11919841D01*
X15370182Y-11919841D02*
X15370182Y-11881746D01*
X15370182Y-11881746D02*
X15360658Y-11834127D01*
X15360658Y-11834127D02*
X15351134Y-11805555D01*
X15351134Y-11805555D02*
X15341611Y-11786508D01*
X15341611Y-11786508D02*
X15322563Y-11757936D01*
X15322563Y-11757936D02*
X15313039Y-11748412D01*
D12*
X10297500Y-12099500D02*
X10297500Y-12199500D01*
X10247500Y-12149500D02*
X10347500Y-12149500D01*
D11*
X10713039Y-12240984D02*
X10598753Y-12240984D01*
X10655896Y-12240984D02*
X10655896Y-12040984D01*
X10655896Y-12040984D02*
X10636848Y-12069555D01*
X10636848Y-12069555D02*
X10617801Y-12088603D01*
X10617801Y-12088603D02*
X10598753Y-12098127D01*
X10798753Y-12221936D02*
X10808277Y-12231460D01*
X10808277Y-12231460D02*
X10798753Y-12240984D01*
X10798753Y-12240984D02*
X10789229Y-12231460D01*
X10789229Y-12231460D02*
X10798753Y-12221936D01*
X10798753Y-12221936D02*
X10798753Y-12240984D01*
X10932086Y-12040984D02*
X10951134Y-12040984D01*
X10951134Y-12040984D02*
X10970182Y-12050508D01*
X10970182Y-12050508D02*
X10979705Y-12060031D01*
X10979705Y-12060031D02*
X10989229Y-12079079D01*
X10989229Y-12079079D02*
X10998753Y-12117174D01*
X10998753Y-12117174D02*
X10998753Y-12164793D01*
X10998753Y-12164793D02*
X10989229Y-12202888D01*
X10989229Y-12202888D02*
X10979705Y-12221936D01*
X10979705Y-12221936D02*
X10970182Y-12231460D01*
X10970182Y-12231460D02*
X10951134Y-12240984D01*
X10951134Y-12240984D02*
X10932086Y-12240984D01*
X10932086Y-12240984D02*
X10913039Y-12231460D01*
X10913039Y-12231460D02*
X10903515Y-12221936D01*
X10903515Y-12221936D02*
X10893991Y-12202888D01*
X10893991Y-12202888D02*
X10884467Y-12164793D01*
X10884467Y-12164793D02*
X10884467Y-12117174D01*
X10884467Y-12117174D02*
X10893991Y-12079079D01*
X10893991Y-12079079D02*
X10903515Y-12060031D01*
X10903515Y-12060031D02*
X10913039Y-12050508D01*
X10913039Y-12050508D02*
X10932086Y-12040984D01*
X11122563Y-12040984D02*
X11141610Y-12040984D01*
X11141610Y-12040984D02*
X11160658Y-12050508D01*
X11160658Y-12050508D02*
X11170182Y-12060031D01*
X11170182Y-12060031D02*
X11179705Y-12079079D01*
X11179705Y-12079079D02*
X11189229Y-12117174D01*
X11189229Y-12117174D02*
X11189229Y-12164793D01*
X11189229Y-12164793D02*
X11179705Y-12202888D01*
X11179705Y-12202888D02*
X11170182Y-12221936D01*
X11170182Y-12221936D02*
X11160658Y-12231460D01*
X11160658Y-12231460D02*
X11141610Y-12240984D01*
X11141610Y-12240984D02*
X11122563Y-12240984D01*
X11122563Y-12240984D02*
X11103515Y-12231460D01*
X11103515Y-12231460D02*
X11093991Y-12221936D01*
X11093991Y-12221936D02*
X11084467Y-12202888D01*
X11084467Y-12202888D02*
X11074944Y-12164793D01*
X11074944Y-12164793D02*
X11074944Y-12117174D01*
X11074944Y-12117174D02*
X11084467Y-12079079D01*
X11084467Y-12079079D02*
X11093991Y-12060031D01*
X11093991Y-12060031D02*
X11103515Y-12050508D01*
X11103515Y-12050508D02*
X11122563Y-12040984D01*
X11313039Y-12040984D02*
X11332086Y-12040984D01*
X11332086Y-12040984D02*
X11351134Y-12050508D01*
X11351134Y-12050508D02*
X11360658Y-12060031D01*
X11360658Y-12060031D02*
X11370182Y-12079079D01*
X11370182Y-12079079D02*
X11379705Y-12117174D01*
X11379705Y-12117174D02*
X11379705Y-12164793D01*
X11379705Y-12164793D02*
X11370182Y-12202888D01*
X11370182Y-12202888D02*
X11360658Y-12221936D01*
X11360658Y-12221936D02*
X11351134Y-12231460D01*
X11351134Y-12231460D02*
X11332086Y-12240984D01*
X11332086Y-12240984D02*
X11313039Y-12240984D01*
X11313039Y-12240984D02*
X11293991Y-12231460D01*
X11293991Y-12231460D02*
X11284467Y-12221936D01*
X11284467Y-12221936D02*
X11274943Y-12202888D01*
X11274943Y-12202888D02*
X11265420Y-12164793D01*
X11265420Y-12164793D02*
X11265420Y-12117174D01*
X11265420Y-12117174D02*
X11274943Y-12079079D01*
X11274943Y-12079079D02*
X11284467Y-12060031D01*
X11284467Y-12060031D02*
X11293991Y-12050508D01*
X11293991Y-12050508D02*
X11313039Y-12040984D01*
X11465420Y-12240984D02*
X11465420Y-12107650D01*
X11465420Y-12126698D02*
X11474943Y-12117174D01*
X11474943Y-12117174D02*
X11493991Y-12107650D01*
X11493991Y-12107650D02*
X11522563Y-12107650D01*
X11522563Y-12107650D02*
X11541610Y-12117174D01*
X11541610Y-12117174D02*
X11551134Y-12136222D01*
X11551134Y-12136222D02*
X11551134Y-12240984D01*
X11551134Y-12136222D02*
X11560658Y-12117174D01*
X11560658Y-12117174D02*
X11579705Y-12107650D01*
X11579705Y-12107650D02*
X11608277Y-12107650D01*
X11608277Y-12107650D02*
X11627324Y-12117174D01*
X11627324Y-12117174D02*
X11636848Y-12136222D01*
X11636848Y-12136222D02*
X11636848Y-12240984D01*
X11732086Y-12240984D02*
X11732086Y-12107650D01*
X11732086Y-12126698D02*
X11741610Y-12117174D01*
X11741610Y-12117174D02*
X11760658Y-12107650D01*
X11760658Y-12107650D02*
X11789229Y-12107650D01*
X11789229Y-12107650D02*
X11808277Y-12117174D01*
X11808277Y-12117174D02*
X11817801Y-12136222D01*
X11817801Y-12136222D02*
X11817801Y-12240984D01*
X11817801Y-12136222D02*
X11827324Y-12117174D01*
X11827324Y-12117174D02*
X11846372Y-12107650D01*
X11846372Y-12107650D02*
X11874943Y-12107650D01*
X11874943Y-12107650D02*
X11893991Y-12117174D01*
X11893991Y-12117174D02*
X11903515Y-12136222D01*
X11903515Y-12136222D02*
X11903515Y-12240984D01*
X12293991Y-12031460D02*
X12122563Y-12288603D01*
X12551134Y-12040984D02*
X12570182Y-12040984D01*
X12570182Y-12040984D02*
X12589229Y-12050508D01*
X12589229Y-12050508D02*
X12598753Y-12060031D01*
X12598753Y-12060031D02*
X12608277Y-12079079D01*
X12608277Y-12079079D02*
X12617801Y-12117174D01*
X12617801Y-12117174D02*
X12617801Y-12164793D01*
X12617801Y-12164793D02*
X12608277Y-12202888D01*
X12608277Y-12202888D02*
X12598753Y-12221936D01*
X12598753Y-12221936D02*
X12589229Y-12231460D01*
X12589229Y-12231460D02*
X12570182Y-12240984D01*
X12570182Y-12240984D02*
X12551134Y-12240984D01*
X12551134Y-12240984D02*
X12532086Y-12231460D01*
X12532086Y-12231460D02*
X12522563Y-12221936D01*
X12522563Y-12221936D02*
X12513039Y-12202888D01*
X12513039Y-12202888D02*
X12503515Y-12164793D01*
X12503515Y-12164793D02*
X12503515Y-12117174D01*
X12503515Y-12117174D02*
X12513039Y-12079079D01*
X12513039Y-12079079D02*
X12522563Y-12060031D01*
X12522563Y-12060031D02*
X12532086Y-12050508D01*
X12532086Y-12050508D02*
X12551134Y-12040984D01*
X12703515Y-12221936D02*
X12713039Y-12231460D01*
X12713039Y-12231460D02*
X12703515Y-12240984D01*
X12703515Y-12240984D02*
X12693991Y-12231460D01*
X12693991Y-12231460D02*
X12703515Y-12221936D01*
X12703515Y-12221936D02*
X12703515Y-12240984D01*
X12836848Y-12040984D02*
X12855896Y-12040984D01*
X12855896Y-12040984D02*
X12874944Y-12050508D01*
X12874944Y-12050508D02*
X12884467Y-12060031D01*
X12884467Y-12060031D02*
X12893991Y-12079079D01*
X12893991Y-12079079D02*
X12903515Y-12117174D01*
X12903515Y-12117174D02*
X12903515Y-12164793D01*
X12903515Y-12164793D02*
X12893991Y-12202888D01*
X12893991Y-12202888D02*
X12884467Y-12221936D01*
X12884467Y-12221936D02*
X12874944Y-12231460D01*
X12874944Y-12231460D02*
X12855896Y-12240984D01*
X12855896Y-12240984D02*
X12836848Y-12240984D01*
X12836848Y-12240984D02*
X12817801Y-12231460D01*
X12817801Y-12231460D02*
X12808277Y-12221936D01*
X12808277Y-12221936D02*
X12798753Y-12202888D01*
X12798753Y-12202888D02*
X12789229Y-12164793D01*
X12789229Y-12164793D02*
X12789229Y-12117174D01*
X12789229Y-12117174D02*
X12798753Y-12079079D01*
X12798753Y-12079079D02*
X12808277Y-12060031D01*
X12808277Y-12060031D02*
X12817801Y-12050508D01*
X12817801Y-12050508D02*
X12836848Y-12040984D01*
X12970182Y-12040984D02*
X13093991Y-12040984D01*
X13093991Y-12040984D02*
X13027325Y-12117174D01*
X13027325Y-12117174D02*
X13055896Y-12117174D01*
X13055896Y-12117174D02*
X13074944Y-12126698D01*
X13074944Y-12126698D02*
X13084467Y-12136222D01*
X13084467Y-12136222D02*
X13093991Y-12155269D01*
X13093991Y-12155269D02*
X13093991Y-12202888D01*
X13093991Y-12202888D02*
X13084467Y-12221936D01*
X13084467Y-12221936D02*
X13074944Y-12231460D01*
X13074944Y-12231460D02*
X13055896Y-12240984D01*
X13055896Y-12240984D02*
X12998753Y-12240984D01*
X12998753Y-12240984D02*
X12979706Y-12231460D01*
X12979706Y-12231460D02*
X12970182Y-12221936D01*
X13189229Y-12240984D02*
X13227325Y-12240984D01*
X13227325Y-12240984D02*
X13246372Y-12231460D01*
X13246372Y-12231460D02*
X13255896Y-12221936D01*
X13255896Y-12221936D02*
X13274944Y-12193365D01*
X13274944Y-12193365D02*
X13284467Y-12155269D01*
X13284467Y-12155269D02*
X13284467Y-12079079D01*
X13284467Y-12079079D02*
X13274944Y-12060031D01*
X13274944Y-12060031D02*
X13265420Y-12050508D01*
X13265420Y-12050508D02*
X13246372Y-12040984D01*
X13246372Y-12040984D02*
X13208277Y-12040984D01*
X13208277Y-12040984D02*
X13189229Y-12050508D01*
X13189229Y-12050508D02*
X13179706Y-12060031D01*
X13179706Y-12060031D02*
X13170182Y-12079079D01*
X13170182Y-12079079D02*
X13170182Y-12126698D01*
X13170182Y-12126698D02*
X13179706Y-12145746D01*
X13179706Y-12145746D02*
X13189229Y-12155269D01*
X13189229Y-12155269D02*
X13208277Y-12164793D01*
X13208277Y-12164793D02*
X13246372Y-12164793D01*
X13246372Y-12164793D02*
X13265420Y-12155269D01*
X13265420Y-12155269D02*
X13274944Y-12145746D01*
X13274944Y-12145746D02*
X13284467Y-12126698D01*
X13455896Y-12107650D02*
X13455896Y-12240984D01*
X13408277Y-12031460D02*
X13360658Y-12174317D01*
X13360658Y-12174317D02*
X13484467Y-12174317D01*
X13551134Y-12040984D02*
X13551134Y-12079079D01*
X13627325Y-12040984D02*
X13627325Y-12079079D01*
X13922563Y-12317174D02*
X13913039Y-12307650D01*
X13913039Y-12307650D02*
X13893991Y-12279079D01*
X13893991Y-12279079D02*
X13884468Y-12260031D01*
X13884468Y-12260031D02*
X13874944Y-12231460D01*
X13874944Y-12231460D02*
X13865420Y-12183841D01*
X13865420Y-12183841D02*
X13865420Y-12145746D01*
X13865420Y-12145746D02*
X13874944Y-12098127D01*
X13874944Y-12098127D02*
X13884468Y-12069555D01*
X13884468Y-12069555D02*
X13893991Y-12050508D01*
X13893991Y-12050508D02*
X13913039Y-12021936D01*
X13913039Y-12021936D02*
X13922563Y-12012412D01*
X14103515Y-12240984D02*
X13989229Y-12240984D01*
X14046372Y-12240984D02*
X14046372Y-12040984D01*
X14046372Y-12040984D02*
X14027325Y-12069555D01*
X14027325Y-12069555D02*
X14008277Y-12088603D01*
X14008277Y-12088603D02*
X13989229Y-12098127D01*
X14179706Y-12060031D02*
X14189229Y-12050508D01*
X14189229Y-12050508D02*
X14208277Y-12040984D01*
X14208277Y-12040984D02*
X14255896Y-12040984D01*
X14255896Y-12040984D02*
X14274944Y-12050508D01*
X14274944Y-12050508D02*
X14284468Y-12060031D01*
X14284468Y-12060031D02*
X14293991Y-12079079D01*
X14293991Y-12079079D02*
X14293991Y-12098127D01*
X14293991Y-12098127D02*
X14284468Y-12126698D01*
X14284468Y-12126698D02*
X14170182Y-12240984D01*
X14170182Y-12240984D02*
X14293991Y-12240984D01*
X14532087Y-12240984D02*
X14532087Y-12040984D01*
X14617801Y-12240984D02*
X14617801Y-12136222D01*
X14617801Y-12136222D02*
X14608277Y-12117174D01*
X14608277Y-12117174D02*
X14589230Y-12107650D01*
X14589230Y-12107650D02*
X14560658Y-12107650D01*
X14560658Y-12107650D02*
X14541610Y-12117174D01*
X14541610Y-12117174D02*
X14532087Y-12126698D01*
X14741610Y-12240984D02*
X14722563Y-12231460D01*
X14722563Y-12231460D02*
X14713039Y-12221936D01*
X14713039Y-12221936D02*
X14703515Y-12202888D01*
X14703515Y-12202888D02*
X14703515Y-12145746D01*
X14703515Y-12145746D02*
X14713039Y-12126698D01*
X14713039Y-12126698D02*
X14722563Y-12117174D01*
X14722563Y-12117174D02*
X14741610Y-12107650D01*
X14741610Y-12107650D02*
X14770182Y-12107650D01*
X14770182Y-12107650D02*
X14789230Y-12117174D01*
X14789230Y-12117174D02*
X14798753Y-12126698D01*
X14798753Y-12126698D02*
X14808277Y-12145746D01*
X14808277Y-12145746D02*
X14808277Y-12202888D01*
X14808277Y-12202888D02*
X14798753Y-12221936D01*
X14798753Y-12221936D02*
X14789230Y-12231460D01*
X14789230Y-12231460D02*
X14770182Y-12240984D01*
X14770182Y-12240984D02*
X14741610Y-12240984D01*
X14922563Y-12240984D02*
X14903515Y-12231460D01*
X14903515Y-12231460D02*
X14893991Y-12212412D01*
X14893991Y-12212412D02*
X14893991Y-12040984D01*
X15074944Y-12231460D02*
X15055896Y-12240984D01*
X15055896Y-12240984D02*
X15017801Y-12240984D01*
X15017801Y-12240984D02*
X14998753Y-12231460D01*
X14998753Y-12231460D02*
X14989230Y-12212412D01*
X14989230Y-12212412D02*
X14989230Y-12136222D01*
X14989230Y-12136222D02*
X14998753Y-12117174D01*
X14998753Y-12117174D02*
X15017801Y-12107650D01*
X15017801Y-12107650D02*
X15055896Y-12107650D01*
X15055896Y-12107650D02*
X15074944Y-12117174D01*
X15074944Y-12117174D02*
X15084468Y-12136222D01*
X15084468Y-12136222D02*
X15084468Y-12155269D01*
X15084468Y-12155269D02*
X14989230Y-12174317D01*
X15160658Y-12231460D02*
X15179706Y-12240984D01*
X15179706Y-12240984D02*
X15217801Y-12240984D01*
X15217801Y-12240984D02*
X15236849Y-12231460D01*
X15236849Y-12231460D02*
X15246372Y-12212412D01*
X15246372Y-12212412D02*
X15246372Y-12202888D01*
X15246372Y-12202888D02*
X15236849Y-12183841D01*
X15236849Y-12183841D02*
X15217801Y-12174317D01*
X15217801Y-12174317D02*
X15189230Y-12174317D01*
X15189230Y-12174317D02*
X15170182Y-12164793D01*
X15170182Y-12164793D02*
X15160658Y-12145746D01*
X15160658Y-12145746D02*
X15160658Y-12136222D01*
X15160658Y-12136222D02*
X15170182Y-12117174D01*
X15170182Y-12117174D02*
X15189230Y-12107650D01*
X15189230Y-12107650D02*
X15217801Y-12107650D01*
X15217801Y-12107650D02*
X15236849Y-12117174D01*
X15313039Y-12317174D02*
X15322563Y-12307650D01*
X15322563Y-12307650D02*
X15341611Y-12279079D01*
X15341611Y-12279079D02*
X15351134Y-12260031D01*
X15351134Y-12260031D02*
X15360658Y-12231460D01*
X15360658Y-12231460D02*
X15370182Y-12183841D01*
X15370182Y-12183841D02*
X15370182Y-12145746D01*
X15370182Y-12145746D02*
X15360658Y-12098127D01*
X15360658Y-12098127D02*
X15351134Y-12069555D01*
X15351134Y-12069555D02*
X15341611Y-12050508D01*
X15341611Y-12050508D02*
X15322563Y-12021936D01*
X15322563Y-12021936D02*
X15313039Y-12012412D01*
M02*
