M48
; DRILL file {KiCad 8.0.6} date 2024-11-22T18:40:09+0100
; FORMAT={-:-/ absolute / inch / decimal}
; #@! TF.CreationDate,2024-11-22T18:40:09+01:00
; #@! TF.GenerationSoftware,Kicad,Pcbnew,8.0.6
; #@! TF.FileFunction,Plated,1,2,PTH
FMAT,2
INCH
; #@! TA.AperFunction,Plated,PTH,ViaDrill
T1C0.0118
; #@! TA.AperFunction,Plated,PTH,ComponentDrill
T2C0.0315
; #@! TA.AperFunction,Plated,PTH,ComponentDrill
T3C0.0394
%
G90
G05
T1
X4.1692Y-4.0061
X5.2098Y-3.7831
T2
X4.2008Y-3.0591
X4.2008Y-3.1591
X4.2008Y-3.2591
X4.2008Y-3.3591
X4.378Y-3.7386
X4.378Y-3.8386
X4.378Y-3.9386
X4.378Y-4.0386
X4.5008Y-3.0591
X4.5008Y-3.1591
X4.5008Y-3.2591
X4.5008Y-3.3591
X4.678Y-3.7386
X4.678Y-3.8386
X4.678Y-3.9386
X4.678Y-4.0386
X5.1654Y-3.0591
X5.1654Y-3.1591
X5.1654Y-3.2591
X5.1654Y-3.3591
X5.3819Y-3.7087
X5.3819Y-3.8087
X5.3819Y-3.9087
X5.3819Y-4.0087
X5.4654Y-3.0591
X5.4654Y-3.1591
X5.4654Y-3.2591
X5.4654Y-3.3591
X5.6819Y-3.7087
X5.6819Y-3.8087
X5.6819Y-3.9087
X5.6819Y-4.0087
T3
X4.1669Y-2.8346
X4.2669Y-2.8346
X4.3669Y-2.8346
X4.4669Y-2.8346
X4.5669Y-2.8346
X4.6669Y-2.8346
X4.9Y-2.8346
X5.0Y-2.8346
X5.1Y-2.8346
X5.3315Y-2.8346
X5.4315Y-2.8346
X5.5315Y-2.8346
M30
