%TF.GenerationSoftware,KiCad,Pcbnew,8.0.6*%
%TF.CreationDate,2024-11-22T18:40:36+01:00*%
%TF.ProjectId,+-10v dac,2b2d3130-7620-4646-9163-2e6b69636164,rev?*%
%TF.SameCoordinates,Original*%
%TF.FileFunction,Soldermask,Bot*%
%TF.FilePolarity,Negative*%
%FSLAX46Y46*%
G04 Gerber Fmt 4.6, Leading zero omitted, Abs format (unit mm)*
G04 Created by KiCad (PCBNEW 8.0.6) date 2024-11-22 18:40:36*
%MOMM*%
%LPD*%
G01*
G04 APERTURE LIST*
%ADD10R,1.600000X1.600000*%
%ADD11O,1.600000X1.600000*%
%ADD12R,1.700000X1.700000*%
%ADD13O,1.700000X1.700000*%
G04 APERTURE END LIST*
D10*
%TO.C,U4*%
X136700000Y-94200000D03*
D11*
X136700000Y-96740000D03*
X136700000Y-99280000D03*
X136700000Y-101820000D03*
X144320000Y-101820000D03*
X144320000Y-99280000D03*
X144320000Y-96740000D03*
X144320000Y-94200000D03*
%TD*%
D10*
%TO.C,U3*%
X131200000Y-77700000D03*
D11*
X131200000Y-80240000D03*
X131200000Y-82780000D03*
X131200000Y-85320000D03*
X138820000Y-85320000D03*
X138820000Y-82780000D03*
X138820000Y-80240000D03*
X138820000Y-77700000D03*
%TD*%
D10*
%TO.C,U2*%
X111200000Y-94960000D03*
D11*
X111200000Y-97500000D03*
X111200000Y-100040000D03*
X111200000Y-102580000D03*
X118820000Y-102580000D03*
X118820000Y-100040000D03*
X118820000Y-97500000D03*
X118820000Y-94960000D03*
%TD*%
D10*
%TO.C,U1*%
X106700000Y-77700000D03*
D11*
X106700000Y-80240000D03*
X106700000Y-82780000D03*
X106700000Y-85320000D03*
X114320000Y-85320000D03*
X114320000Y-82780000D03*
X114320000Y-80240000D03*
X114320000Y-77700000D03*
%TD*%
D12*
%TO.C,J3*%
X140500000Y-72000000D03*
D13*
X137960000Y-72000000D03*
X135420000Y-72000000D03*
%TD*%
D12*
%TO.C,J2*%
X105840000Y-72000000D03*
D13*
X108380000Y-72000000D03*
X110920000Y-72000000D03*
X113460000Y-72000000D03*
X116000000Y-72000000D03*
X118540000Y-72000000D03*
%TD*%
D12*
%TO.C,J1*%
X124460000Y-72000000D03*
D13*
X127000000Y-72000000D03*
X129540000Y-72000000D03*
%TD*%
M02*
